<svg width="44" height="40" viewBox="0 0 44 40" fill="none" xmlns="http://www.w3.org/2000/svg">
<path d="M34.5405 16.8335L43.7072 39.7501H39.2176L36.7155 33.5001H28.1947L25.6968 39.7501H21.2093L30.3739 16.8335H34.5405ZM16.8322 0.166809V4.33348H29.3322V8.50014H25.2322C23.6252 13.3378 21.0603 17.8023 17.6905 21.6272C19.1932 22.9681 20.8232 24.1591 22.5572 25.1835L20.9926 29.096C18.7541 27.8264 16.6605 26.3168 14.7489 24.5939C11.0272 27.9621 6.61978 30.4839 1.83011 31.9856L0.713444 27.9668C4.81727 26.6583 8.5989 24.4988 11.8114 21.6293C9.43363 18.9375 7.45316 15.9194 5.93011 12.6668H10.5968C11.7579 14.8103 13.1502 16.8202 14.7489 18.6606C17.3532 15.6587 19.4057 12.2195 20.8114 8.50222L0.165527 8.50014V4.33348H12.6655V0.166809H16.8322ZM32.4572 22.8439L29.8593 29.3335H35.0509L32.4572 22.8439Z" fill="#F79624"/>
</svg>
