<svg width="41" height="46" viewBox="0 0 41 46" fill="none" xmlns="http://www.w3.org/2000/svg">
<path d="M8.80773 33.672C5.33639 31.4687 2.7346 28.3278 1.37932 24.7045C0.0240339 21.0812 -0.0143502 17.1636 1.26973 13.5193C2.55381 9.87502 5.09365 6.69335 8.52128 4.43527C11.9489 2.17718 16.0863 0.959961 20.334 0.959961C24.5817 0.959961 28.7191 2.17718 32.1467 4.43527C35.5743 6.69335 38.1142 9.87502 39.3982 13.5193C40.6823 17.1636 40.6439 21.0812 39.2887 24.7045C37.9334 28.3278 35.3316 31.4687 31.8602 33.672L37.0677 44.3826C37.1514 44.5541 37.1861 44.7416 37.1689 44.9282C37.1516 45.1148 37.0829 45.2946 36.969 45.4512C36.855 45.6078 36.6994 45.7364 36.5163 45.8253C36.3331 45.9141 36.1283 45.9604 35.9202 45.96H4.74523C4.53752 45.9602 4.33301 45.9139 4.15018 45.8252C3.96734 45.7365 3.81196 45.6082 3.69806 45.4518C3.58416 45.2955 3.51535 45.1161 3.49783 44.9298C3.48031 44.7435 3.51465 44.5562 3.59773 44.3849L8.80523 33.672H8.80773ZM10.6302 21.141C11.1741 23.0862 12.424 24.8123 14.1817 26.0455C15.9393 27.2787 18.1041 27.9485 20.3327 27.9485C22.5613 27.9485 24.7262 27.2787 26.4838 26.0455C28.2415 24.8123 29.4914 23.0862 30.0352 21.141L25.1852 20.0497C24.9161 21.0248 24.2921 21.8908 23.4127 22.5098C22.5333 23.1287 21.4491 23.4649 20.3327 23.4649C19.2164 23.4649 18.1322 23.1287 17.2528 22.5098C16.3734 21.8908 15.7494 21.0248 15.4802 20.0497L10.6302 21.141Z" fill="#F79624"/>
</svg>
