<svg width="38" height="42" viewBox="0 0 38 42" fill="none" xmlns="http://www.w3.org/2000/svg">
<path d="M23.1667 12.6665V4.33317H4.41667V37.6665H33.5833V14.7498H27.3333V24.3748C27.3333 26.1332 26.4042 27.7769 24.8604 28.7519L19 32.454L13.1396 28.7498C11.5958 27.7769 10.6667 26.1332 10.6667 24.3748V12.6665H23.1667ZM37.75 12.6665V39.7353C37.7519 40.0088 37.6999 40.2801 37.597 40.5336C37.4941 40.7871 37.3422 41.0179 37.1501 41.2127C36.958 41.4075 36.7294 41.5626 36.4774 41.669C36.2254 41.7755 35.9548 41.8313 35.6812 41.8332H2.31875C1.77044 41.8332 1.24457 41.6155 0.856659 41.228C0.468753 40.8405 0.250552 40.3148 0.25 39.7665V2.23317C0.25 1.11442 1.18542 0.166504 2.3375 0.166504H25.2437L37.75 12.6665ZM14.8333 24.3748C14.8333 24.6873 15.0146 25.0082 15.3646 25.229L19 27.5248L22.6354 25.229C22.9854 25.0082 23.1667 24.6873 23.1667 24.3748V16.8332H14.8333V24.3748Z" fill="#F79624"/>
</svg>
