<svg width="78" height="78" viewBox="0 0 78 78" fill="none" xmlns="http://www.w3.org/2000/svg">
<path opacity="0.4" d="M42.173 10.1192L49.409 24.6606C49.9422 25.7142 50.9596 26.4458 52.1331 26.6084L68.3866 28.9756C69.3358 29.1089 70.1972 29.6097 70.7791 30.3738C71.3545 31.1282 71.6015 32.0842 71.4618 33.0239C71.348 33.8043 70.9807 34.5262 70.4183 35.0789L58.641 46.4955C57.7796 47.2921 57.3895 48.4725 57.5975 49.6268L60.4972 65.677C60.806 67.615 59.522 69.4424 57.5975 69.8098C56.8044 69.9367 55.9917 69.8033 55.2765 69.4392L40.7784 61.8856C39.7024 61.3425 38.4314 61.3425 37.3554 61.8856L22.8573 69.4392C21.076 70.3854 18.8687 69.7416 17.8773 67.9857C17.5099 67.2866 17.3799 66.4899 17.5002 65.7128L20.3998 49.6594C20.6079 48.5083 20.2145 47.3214 19.3563 46.5248L7.57905 35.1147C6.178 33.762 6.13574 31.5346 7.48478 30.1332C7.51404 30.1039 7.54655 30.0714 7.57905 30.0389C8.13817 29.4698 8.87283 29.1089 9.666 29.0146L25.9195 26.6441C27.0897 26.4783 28.1072 25.7532 28.6436 24.6932L35.6196 10.1192C36.2405 8.87061 37.5277 8.09347 38.9255 8.12598H39.3611C40.5736 8.27231 41.6301 9.02344 42.173 10.1192Z" fill="#FF0000"/>
<path d="M38.974 61.4806C38.3445 61.5001 37.7312 61.6693 37.1796 61.9718L22.7523 69.5082C20.9871 70.3507 18.8746 69.6969 17.8849 68.0087C17.5182 67.3192 17.3851 66.5288 17.5084 65.7546L20.39 49.7352C20.5847 48.5708 20.1953 47.3868 19.3483 46.5672L7.5658 35.16C6.16721 33.7907 6.14125 31.5431 7.51063 30.1412C7.5301 30.1217 7.54633 30.1054 7.5658 30.0891C8.12393 29.5362 8.84432 29.1719 9.61987 29.058L25.887 26.6641C27.0649 26.5145 28.0871 25.7794 28.6063 24.7125L35.6771 9.95513C36.3488 8.76466 37.6371 8.05558 39 8.13039C38.974 9.09643 38.974 60.8236 38.974 61.4806Z" fill="#FF0000"/>
</svg>
