<svg width="78" height="78" viewBox="0 0 78 78" fill="none" xmlns="http://www.w3.org/2000/svg">
<path opacity="0.4" d="M38.2719 70.9717C30.852 66.3887 23.9545 60.9848 17.7056 54.8587C13.2941 50.4847 9.92503 45.144 7.85576 39.2446C4.15846 27.7395 8.46235 14.5908 20.4786 10.6873C26.821 8.69548 33.7189 9.9182 39.0229 13.9745C44.3288 9.92274 51.2245 8.70041 57.5672 10.6873C69.5834 14.5908 73.9162 27.7395 70.2189 39.2446C68.1664 45.1385 64.8174 50.4787 60.4268 54.8587C54.1722 60.9781 47.2755 66.3814 39.8606 70.9717L39.0518 71.5L38.2719 70.9717Z" fill="#FF0000"/>
<path d="M39.0354 71.5L38.2719 70.9717C30.8429 66.3891 23.9358 60.9852 17.6768 54.8587C13.2444 50.4908 9.85525 45.1496 7.76919 39.2446C4.10077 27.7395 8.40466 14.5908 20.4209 10.6873C26.7633 8.69547 33.7522 9.91913 39.0354 14.0094V71.5Z" fill="#FF0000"/>
<path d="M59.2489 32.4975C58.5961 32.4554 57.9881 32.1292 57.5674 31.5951C57.1468 31.061 56.9504 30.3661 57.0242 29.673C57.0949 27.3904 55.796 25.3126 53.7931 24.5042C52.523 24.1575 51.7539 22.7821 52.0716 21.4256C52.3731 20.0909 53.6229 19.261 54.879 19.5614C55.0376 19.5877 55.1903 19.6452 55.3292 19.7309C59.3453 21.2764 61.9454 25.4358 61.7385 29.9837C61.7319 30.673 61.4632 31.3299 60.9938 31.8039C60.5244 32.2778 59.8947 32.5282 59.2489 32.4975Z" fill="#FF0000"/>
</svg>
