<svg width="78" height="78" viewBox="0 0 78 78" fill="none" xmlns="http://www.w3.org/2000/svg">
<path opacity="0.4" d="M6.50073 36.0051C6.66323 43.6036 7.11823 56.6004 7.18323 58.0336C7.41398 61.0984 8.58723 64.1956 10.4137 66.3796C12.9552 69.4444 16.085 70.8126 20.4497 70.8126C26.4817 70.8451 33.1312 70.8451 39.589 70.8451C46.0727 70.8451 52.3647 70.8451 57.6785 70.8126C61.9815 70.8126 65.2087 69.4086 67.7177 66.3796C69.5442 64.1956 70.7175 61.0659 70.8832 58.0336C70.9482 56.8279 71.2732 42.7196 71.4682 36.0051H6.50073Z" fill="#FF0000"/>
<path d="M36.5476 49.9987V54.2042C36.5476 55.5497 37.6396 56.6417 38.9851 56.6417C40.3306 56.6417 41.4226 55.5497 41.4226 54.2042V49.9987C41.4226 48.6532 40.3306 47.5612 38.9851 47.5612C37.6396 47.5612 36.5476 48.6532 36.5476 49.9987Z" fill="#FF0000"/>
<path fill-rule="evenodd" clip-rule="evenodd" d="M33.1867 47.3083C32.8617 48.488 31.7275 49.242 30.499 49.0795C22.2082 47.9225 14.2847 44.9813 7.59623 40.5645C6.91048 40.116 6.50098 39.349 6.50098 38.53V27.2655C6.50098 20.4405 12.065 14.8895 18.9062 14.8895H25.299C25.91 10.1705 29.9075 6.50128 34.789 6.50128H43.1805C48.0587 6.50128 52.0595 10.1705 52.6705 14.8895H59.0957C65.9175 14.8895 71.4685 20.4405 71.4685 27.2655V38.53C71.4685 39.349 71.0557 40.1128 70.3765 40.5645C63.675 45.0008 55.719 47.955 47.373 49.1088C47.2592 49.125 47.1487 49.1315 47.0382 49.1315C45.9365 49.1315 44.9517 48.3873 44.6755 47.2953C44.019 44.7083 41.6692 42.898 38.9685 42.898C36.232 42.898 33.9082 44.6693 33.1867 47.3083ZM43.1805 11.3763H34.789C32.6017 11.3763 30.7752 12.8713 30.2292 14.8895H47.737C47.191 12.8713 45.3645 11.3763 43.1805 11.3763Z" fill="#FF0000"/>
</svg>
