<svg width="104" height="104" viewBox="0 0 104 104" fill="none" xmlns="http://www.w3.org/2000/svg">
<g clip-path="url(#clip0_1024_1144)">
<path d="M0 52C0 23.2812 23.2812 0 52 0V0C80.7188 0 104 23.2812 104 52V52C104 80.7188 80.7188 104 52 104V104C23.2812 104 0 80.7188 0 52V52Z" fill="#1972cbb3"/>
<path fill-rule="evenodd" clip-rule="evenodd" d="M57.4572 20.2701C54.633 20.6008 51.3763 21.6422 49.1283 22.9338C47.7931 23.7007 47.7507 23.7119 45.5555 23.8764C36.4224 24.5611 31.676 27.8243 30.4151 34.2856C30.0192 36.3152 30.184 42.7522 30.7042 45.5648C30.7739 45.9412 30.6651 46.0576 29.84 46.4907C28.059 47.4253 27.1694 48.8657 27.0614 50.9891C26.9845 52.5025 27.7092 58.8128 28.1308 60.3013C28.5758 61.8721 29.8288 63.2092 31.4295 63.8218L32.2227 64.1254L32.5785 65.6507C32.7743 66.4897 33.1119 67.7185 33.3288 68.3815C34.2035 71.0547 36.3671 74.8494 38.1176 76.7799L38.9533 77.7017L38.3173 80.262L37.6811 82.8223L30.0868 84.7513C25.91 85.8122 21.8775 86.9281 21.1259 87.231C18.4503 88.3092 16.3506 89.7193 14.1994 91.8825C10.5412 95.5616 8.34294 100.665 8.32107 105.529C8.3139 107.134 8.3332 107.223 8.78727 107.682L9.26081 108.16H51.9608H94.6609L95.1195 107.698C95.6922 107.12 95.8155 105.999 95.5377 103.895C94.6957 97.5171 91.131 91.9693 85.7794 88.7083C83.5572 87.3541 81.797 86.7707 73.8349 84.7499L66.2406 82.8223L65.6823 80.5957C65.3752 79.371 65.1222 78.2917 65.1199 78.197C65.1177 78.1023 65.5849 77.4823 66.1581 76.8194C68.8859 73.6641 71.0773 69.2702 71.7854 65.536C72.0302 64.2452 72.2135 63.8182 72.5227 63.8182C72.9476 63.8182 74.3627 62.7338 74.9504 61.958C75.7419 60.9133 75.9605 60.0509 76.4703 55.9677C77.1167 50.7897 77.0557 49.7843 76.0007 48.215C75.5244 47.5064 74.2413 46.4215 73.6415 46.2199C73.4977 46.1716 73.4956 45.2793 73.6335 42.7497L73.819 39.3444L74.8558 38.1925C75.4262 37.5592 76.1182 36.647 76.3936 36.1655C78.1832 33.0387 77.4992 29.155 74.4733 25.2624C72.4127 22.6117 68.9493 20.8672 64.5473 20.2626C63.0109 20.0514 59.2905 20.0556 57.4572 20.2701Z" fill="#1972CB"/>
</g>
<defs>
<clipPath id="clip0_1024_1144">
<path d="M0 52C0 23.2812 23.2812 0 52 0V0C80.7188 0 104 23.2812 104 52V52C104 80.7188 80.7188 104 52 104V104C23.2812 104 0 80.7188 0 52V52Z" fill="#1972cbb3"/>
</clipPath>
</defs>
</svg>