<svg width="74" height="70" viewBox="0 0 74 70" fill="none" xmlns="http://www.w3.org/2000/svg">
<path d="M58.7012 43.507C57.7516 44.4273 57.3152 45.7583 57.5316 47.0637L60.7912 65.1037C61.0662 66.6327 60.4209 68.18 59.1412 69.0637C57.8872 69.9803 56.2189 70.0903 54.8512 69.357L38.6116 60.887C38.0469 60.5863 37.4199 60.425 36.7782 60.4067H35.7846C35.4399 60.458 35.1026 60.568 34.7946 60.7367L18.5512 69.247C17.7482 69.6503 16.8389 69.7933 15.9479 69.6503C13.7772 69.2397 12.3289 67.1717 12.6846 64.99L15.9479 46.95C16.1642 45.6337 15.7279 44.2953 14.7782 43.3603L1.53791 30.527C0.430576 29.4527 0.0455759 27.8393 0.551576 26.3837C1.04291 24.9317 2.29691 23.872 3.81124 23.6337L22.0346 20.99C23.4206 20.847 24.6379 20.0037 25.2612 18.757L33.2912 2.29366C33.4819 1.92699 33.7276 1.58966 34.0246 1.30366L34.3546 1.04699C34.5269 0.856326 34.7249 0.698659 34.9449 0.570326L35.3446 0.423659L35.9679 0.166992H37.5116C38.8902 0.309992 40.1039 1.13499 40.7382 2.36699L48.8746 18.757C49.4612 19.956 50.6016 20.7883 51.9179 20.99L70.1412 23.6337C71.6812 23.8537 72.9682 24.917 73.4779 26.3837C73.9582 27.854 73.5439 29.4673 72.4146 30.527L58.7012 43.507Z" fill="white"/>
</svg>
