<svg width="140" height="93" viewBox="0 0 140 93" fill="none" xmlns="http://www.w3.org/2000/svg">
<path d="M42.9363 23.7268C50.4014 14.3958 66.2645 10.4921 76.8694 24.4796C85.8645 36.3438 89.7834 37.0225 96.6204 39.2796C101.135 40.7709 108.522 42.791 104.218 54.3311C98.5835 69.4349 70.7116 73.5145 55.4719 67.8768C40.8985 62.4861 29.3885 40.659 42.9363 23.7268Z" fill="url(#paint0_linear_10_274)"/>
<path d="M77.1618 18.0017C80.6607 24.12 87.2873 31.9999 98.3199 35.1966C109.353 38.3915 111.318 31.8481 107.992 24.2417C104.666 16.6352 96.5057 9.93858 86.3801 8.41695C76.2546 6.89531 74.2897 12.9801 77.1618 18.0017Z" fill="url(#paint1_linear_10_274)"/>
<path fill-rule="evenodd" clip-rule="evenodd" d="M46.9371 60.6276V28.7866C46.9371 25.4882 49.6127 22.8166 52.9161 22.8166H88.79C92.0934 22.8166 94.7689 25.4882 94.7689 28.7866V60.6276C94.7689 62.7947 93.591 64.7947 91.6926 65.8454L73.7558 75.7944C72.8679 76.2877 71.8682 76.5466 70.8515 76.5466C69.8349 76.5466 68.8352 76.2877 67.9472 75.7944L50.0103 65.8454C49.0784 65.3268 48.3024 64.5699 47.7621 63.6526C47.2219 62.7354 46.9371 61.6912 46.9371 60.6276Z" fill="#FF683B"/>
<path d="M60.9104 58.1605H80.7955M60.9104 49.146H80.7955H60.9104ZM60.9104 39.8638H80.7955H60.9104Z" stroke="white" strokeWidth="8" stroke-linecap="round" stroke-linejoin="round"/>
<path d="M94.0269 71.2366L89.5662 75.6814C89.4038 75.8433 89.4038 76.1057 89.5662 76.2676C89.7287 76.4294 89.992 76.4294 90.1545 76.2676L94.6152 71.8228C94.7776 71.6609 94.7776 71.3985 94.6152 71.2366C94.4527 71.0748 94.1894 71.0748 94.0269 71.2366Z" fill="#E1E4E5"/>
<path d="M29.9493 56.7324L34.41 52.2876C34.5724 52.1258 34.5724 51.8634 34.41 51.7015C34.2475 51.5396 33.9842 51.5396 33.8217 51.7015L29.361 56.1463C29.1986 56.3081 29.1986 56.5706 29.361 56.7324C29.5235 56.8943 29.7868 56.8943 29.9493 56.7324Z" fill="#E1E4E5"/>
<path d="M40.2898 21.819L44.7506 17.3742C44.913 17.2124 44.913 16.9499 44.7506 16.7881C44.5881 16.6262 44.3247 16.6262 44.1623 16.7881L39.7016 21.2328C39.5392 21.3947 39.5392 21.6571 39.7016 21.819C39.864 21.9809 40.1274 21.9809 40.2898 21.819Z" fill="#E1E4E5"/>
<path d="M93.59 74.4192L92.3036 75.7009C92.1412 75.8628 92.1412 76.1252 92.3036 76.2871C92.4661 76.449 92.7295 76.449 92.8919 76.2871L94.1783 75.0053C94.3407 74.8434 94.3407 74.581 94.1783 74.4192C94.0159 74.2573 93.7525 74.2573 93.59 74.4192Z" fill="#E1E4E5"/>
<path d="M30.3862 53.5499L31.6726 52.2681C31.835 52.1063 31.835 51.8439 31.6725 51.682C31.5101 51.5201 31.2467 51.5201 31.0843 51.682L29.7979 52.9638C29.6355 53.1256 29.6355 53.3881 29.7979 53.5499C29.9604 53.7118 30.2237 53.7118 30.3862 53.5499Z" fill="#E1E4E5"/>
<path d="M40.7266 18.6365L42.013 17.3547C42.1754 17.1928 42.1754 16.9304 42.013 16.7685C41.8506 16.6067 41.5872 16.6067 41.4248 16.7685L40.1384 18.0503C39.9759 18.2122 39.9759 18.4746 40.1384 18.6365C40.3008 18.7983 40.5642 18.7983 40.7266 18.6365Z" fill="#E1E4E5"/>
<path d="M112.175 38.5019L111.533 37.8621C110.856 37.1878 109.759 37.1878 109.082 37.8621L108.44 38.5019C107.763 39.1762 107.763 40.2694 108.44 40.9436L109.082 41.5835C109.759 42.2578 110.856 42.2578 111.533 41.5835L112.175 40.9436C112.852 40.2694 112.852 39.1762 112.175 38.5019Z" fill="#FF683B"/>
<path d="M70.9426 83.5083C72.1299 83.5083 73.0924 82.5892 73.0924 81.4554C73.0924 80.3217 72.1299 79.4026 70.9426 79.4026C69.7553 79.4026 68.7928 80.3217 68.7928 81.4554C68.7928 82.5892 69.7553 83.5083 70.9426 83.5083Z" fill="#E1E4E5"/>
<path fill-rule="evenodd" clip-rule="evenodd" d="M89.3946 20.3176H84.3785C82.9941 20.3176 81.8705 21.4505 81.8705 22.8464V35.4904L86.8865 32.9615L91.9026 35.4904V22.8464C91.9026 21.4505 90.779 20.3176 89.3946 20.3176Z" fill="white"/>
<path d="M32.1822 45.5669C30.665 46.4397 28.7251 45.9217 27.8492 44.41C26.9733 42.8983 27.4931 40.9653 29.0102 40.0926C30.5273 39.2198 32.4673 39.7377 33.3432 41.2494C34.2191 42.7611 33.6993 44.6941 32.1822 45.5669Z" fill="#FF683B"/>
<path d="M35.2542 60.6009C34.2064 61.2037 33.8474 62.5387 34.4523 63.5828C35.0573 64.6268 36.3971 64.9846 37.4448 64.3818C38.4926 63.779 38.8516 62.444 38.2467 61.3999C37.6418 60.3559 36.3019 59.9982 35.2542 60.6009Z" fill="#E1E4E5"/>
<path d="M25.9281 29.3573C28.8615 32.3322 34.3468 31.7049 34.3468 31.7049C34.3468 31.7049 35.0726 26.2545 32.1365 23.2815C29.2032 20.3065 23.7207 20.932 23.7207 20.932C23.7207 20.932 22.9948 26.3824 25.9281 29.3573Z" fill="url(#paint2_linear_10_274)"/>
<path d="M50.8916 79.8473C54.0586 77.1207 53.7812 71.6261 53.7812 71.6261C53.7812 71.6261 48.3688 70.5557 45.2034 73.2853C42.0364 76.0119 42.3121 81.5037 42.3121 81.5037C42.3121 81.5037 47.7245 82.5741 50.8916 79.8473Z" fill="url(#paint3_linear_10_274)"/>
<path d="M99.5397 10.6783H99.4941C99.2242 14.5145 96.3813 14.5737 96.3813 14.5737C96.3813 14.5737 99.5164 14.6351 99.5164 19.0679C99.5164 14.6349 102.651 14.5737 102.651 14.5737C102.651 14.5737 99.8094 14.5147 99.5397 10.6783ZM99.2457 63.9104C99.2457 63.9104 104.786 62.1352 107.602 58.5925C107.976 58.1217 107.545 57.4435 106.955 57.571C106.945 57.5731 106.935 57.5753 106.925 57.5777C105.921 57.8121 102.289 61.8717 99.2457 63.9104ZM95.9086 63.942C95.9086 63.942 104.627 58.2581 107.525 50.8812C107.701 50.4317 107.502 49.9078 107.055 49.7159C106.765 49.5913 106.349 49.5904 105.763 49.9077C104.199 50.7549 100.031 59.164 95.9086 63.942Z" fill="#E1E4E5"/>
<defs>
<linearGradient id="paint0_linear_10_274" x1="72.6743" y1="101.124" x2="71.3158" y2="-44.4961" gradientUnits="userSpaceOnUse">
<stop stop-color="white"/>
<stop offset="1" stop-color="#EEEEEE"/>
</linearGradient>
<linearGradient id="paint1_linear_10_274" x1="93.4229" y1="51.6384" x2="92.7092" y2="-22.1166" gradientUnits="userSpaceOnUse">
<stop stop-color="white"/>
<stop offset="1" stop-color="#EEEEEE"/>
</linearGradient>
<linearGradient id="paint2_linear_10_274" x1="37.6317" y1="39.5189" x2="16.533" y2="6.32622" gradientUnits="userSpaceOnUse">
<stop stop-color="white"/>
<stop offset="1" stop-color="#EEEEEE"/>
</linearGradient>
<linearGradient id="paint3_linear_10_274" x1="61.8172" y1="68.8594" x2="27.3437" y2="87.9327" gradientUnits="userSpaceOnUse">
<stop stop-color="white"/>
<stop offset="1" stop-color="#EEEEEE"/>
</linearGradient>
</defs>
</svg>
