<svg width="153" height="102" viewBox="0 0 153 102" fill="none" xmlns="http://www.w3.org/2000/svg">
<path fill-rule="evenodd" clip-rule="evenodd" d="M61.8379 33.275C55.5303 34.1401 50.6556 39.5157 50.6556 46.0889C50.6556 53.2622 56.4458 59.0794 63.5861 59.0794H92.0333C97.7459 59.0794 102.378 54.4262 102.378 48.687C102.378 42.9476 97.7459 38.2946 92.0333 38.2946C92.0333 29.6842 85.0869 22.7057 76.5167 22.7057C69.697 22.7057 63.9197 27.1303 61.8379 33.275ZM23.1119 43.5669C19.3171 44.087 16.3843 47.3185 16.3843 51.27C16.3843 55.5824 19.8679 59.0794 24.1636 59.0794H41.2782C44.7151 59.0794 47.5016 56.2821 47.5016 52.8319C47.5016 49.3818 44.7151 46.5844 41.2782 46.5844C41.2782 41.4083 37.0991 37.2132 31.943 37.2132C27.8401 37.2132 24.3642 39.873 23.1119 43.5669Z" fill="white" stroke="#E1E4E5" strokeWidth="4.21"/>
<path fill-rule="evenodd" clip-rule="evenodd" d="M90.8133 43.5669C87.0183 44.087 84.0857 47.3185 84.0857 51.27C84.0857 55.5824 87.5692 59.0794 91.8649 59.0794H108.979C112.416 59.0794 115.203 56.2821 115.203 52.8319C115.203 49.3818 112.416 46.5844 108.979 46.5844C108.979 41.4083 104.801 37.2132 99.6442 37.2132C95.5415 37.2132 92.0657 39.873 90.8133 43.5669ZM63.2568 59.0794H22.1351C18.2751 59.0794 18.4523 55.8836 19.7131 54.7699C21.0055 53.6286 23.5589 54.0915 23.5589 54.0915C23.5589 54.0915 24.3191 51.9418 26.8213 50.8953C29.0347 49.9697 31.3534 50.4101 31.3534 50.4101C31.3534 50.4101 31.3534 48.9349 32.7705 47.7131C34.1878 46.4909 36.0775 46.6098 36.0775 46.6098C36.0775 46.6098 37.3765 38.4748 46.0569 38.4748C54.7371 38.4748 55.7409 46.1346 55.7409 46.1346C55.7409 46.1346 57.6896 46.1346 59.1069 47.4411C60.524 48.7475 60.7012 50.2318 60.7012 50.2318C60.7012 50.2318 65.4408 49.5897 66.8426 53.701C67.6778 56.1514 65.9616 59.0794 63.2568 59.0794Z" fill="white" stroke="#E1E4E5" strokeWidth="4.21"/>
<path fill-rule="evenodd" clip-rule="evenodd" d="M133.885 59.0794H92.5839C88.707 59.0794 88.885 55.8836 90.1513 54.7699C91.4493 53.6285 94.0139 54.0914 94.0139 54.0914C94.0139 54.0914 94.7774 51.9418 97.2906 50.8953C99.5136 49.9696 101.842 50.4101 101.842 50.4101C101.842 50.4101 101.842 48.9348 103.266 47.713C104.689 46.4909 106.587 46.6097 106.587 46.6097C106.587 46.6097 107.892 38.4747 116.61 38.4747C125.328 38.4747 126.337 46.1346 126.337 46.1346C126.337 46.1346 128.294 46.1346 129.717 47.441C131.141 48.7475 131.318 50.2318 131.318 50.2318C131.318 50.2318 136.079 49.5897 137.486 53.7009C138.325 56.1513 136.602 59.0794 133.885 59.0794Z" fill="white" stroke="#E1E4E5" strokeWidth="4.21"/>
<path fill-rule="evenodd" clip-rule="evenodd" d="M85.8444 48.1637C91.0143 53.3336 91.0143 61.7154 85.8444 66.8853C80.6745 72.0552 72.2925 72.0552 67.1226 66.8853C61.9529 61.7154 61.9529 53.3336 67.1226 48.1637C72.2925 42.9938 80.6745 42.9938 85.8444 48.1637Z" fill="#FF683B"/>
<path d="M83.7125 50.2784C87.6959 54.2618 87.6959 60.72 83.7125 64.7034C79.7292 68.6867 73.2708 68.6867 69.2875 64.7034C65.3042 60.72 65.3042 54.2618 69.2875 50.2784C73.2708 46.2951 79.7292 46.2951 83.7125 50.2784Z" stroke="#FF683B" strokeWidth="10" stroke-linecap="round" stroke-linejoin="round"/>
<path d="M76.4835 61.5977V56.4041V61.5977ZM76.4774 53.3105C75.6344 53.3105 74.95 53.9949 74.9561 54.8381C74.9561 55.6811 75.6405 56.3656 76.4835 56.3656C77.3267 56.3656 78.0112 55.6811 78.0112 54.8381C78.0112 53.9949 77.3267 53.3105 76.4774 53.3105Z" stroke="white" strokeWidth="6" stroke-linecap="round" stroke-linejoin="round"/>
<path d="M68.885 39.9034C69.7382 36.5694 72.7627 34.103 76.3635 34.103C80.6262 34.103 84.0805 37.5571 84.0805 41.8198V46.6875" stroke="#FF683B" strokeWidth="7" stroke-linecap="round" stroke-linejoin="round"/>
<path d="M89.8063 74.7845H100.725M46.0723 68.1441H56.9914H46.0723ZM28.6702 64.4806H39.5893H28.6702ZM15.1606 68.8311H26.0797H15.1606ZM73.0914 78.906H84.0105H73.0914ZM55.6893 75.2423H66.6083H55.6893ZM42.1799 79.5929H53.0989H42.1799ZM118.185 74.0977H129.103H118.185ZM124.702 65.8063H135.621H124.702ZM103.316 70.434H114.235H103.316ZM96.1079 64.3346H107.027H96.1079Z" stroke="#E1E4E5" strokeWidth="4.21" stroke-linecap="round" stroke-linejoin="round"/>
<path d="M117.444 54.0513C114.098 54.844 110.559 52.0064 110.559 52.0064C110.559 52.0064 112.447 47.8849 115.795 47.0948C119.141 46.3021 122.679 49.1373 122.679 49.1373C122.679 49.1373 120.79 53.2586 117.444 54.0513Z" fill="url(#paint0_linear_31_220)"/>
<path d="M38.4185 32.1829C41.4522 34.2723 46.0867 32.8117 46.0867 32.8117C46.0867 32.8117 45.7997 27.9638 42.7641 25.8764C39.7306 23.7867 35.0979 25.2453 35.0979 25.2453C35.0979 25.2453 35.3849 30.0934 38.4185 32.1829Z" fill="url(#paint1_linear_31_220)"/>
<path d="M121.982 56.4203C120.667 56.4203 119.6 57.4438 119.6 58.7065C119.6 59.9691 120.667 60.9926 121.982 60.9926C123.297 60.9926 124.364 59.9691 124.364 58.7065C124.364 57.4438 123.297 56.4203 121.982 56.4203Z" fill="#FF683B"/>
<path d="M97.5001 32.9859C96.2375 32.9859 95.2139 32.005 95.2139 30.795C95.2139 29.585 96.2375 28.604 97.5001 28.604C98.7627 28.604 99.7863 29.585 99.7863 30.795C99.7863 32.005 98.7627 32.9859 97.5001 32.9859Z" fill="#FF683B"/>
<path d="M110.36 34.1292C109.466 34.1292 108.741 33.4041 108.741 32.5098C108.741 31.6154 109.466 30.8904 110.36 30.8904C111.255 30.8904 111.98 31.6154 111.98 32.5098C111.98 33.4041 111.255 34.1292 110.36 34.1292Z" fill="#E1E4E5"/>
<path d="M82.9571 28.6463C83.1828 29.4886 82.683 30.3544 81.8407 30.5801C80.9983 30.8058 80.1325 30.3059 79.9068 29.4636C79.6811 28.6213 80.181 27.7555 81.0233 27.5298C81.8656 27.3041 82.7314 27.804 82.9571 28.6463Z" fill="#E1E4E5"/>
<path d="M131.97 45.9415H131.998C132.162 48.2065 133.89 48.2414 133.89 48.2414C133.89 48.2414 131.984 48.2778 131.984 50.8949C131.984 48.2778 130.079 48.2414 130.079 48.2414C130.079 48.2414 131.806 48.2065 131.97 45.9415Z" fill="#E1E4E5"/>
<path d="M38.5339 53.5622C37.9552 53.5622 37.486 53.0504 37.486 52.4191C37.486 51.7878 37.9552 51.2761 38.5339 51.2761C39.1126 51.2761 39.5818 51.7878 39.5818 52.4191C39.5818 53.0504 39.1126 53.5622 38.5339 53.5622Z" fill="#FF683B"/>
<path d="M48.4231 62.9687C48.563 63.491 48.2531 64.0278 47.7308 64.1678C47.2085 64.3077 46.6717 63.9978 46.5317 63.4755C46.3918 62.9532 46.7017 62.4164 47.224 62.2765C47.7463 62.1365 48.2831 62.4465 48.4231 62.9687Z" fill="#E1E4E5"/>
<path d="M47.9647 46.7036C47.2281 46.7036 46.631 46.1491 46.631 45.4651C46.631 44.7812 47.2281 44.2267 47.9647 44.2267C48.7012 44.2267 49.2983 44.7812 49.2983 45.4651C49.2983 46.1491 48.7012 46.7036 47.9647 46.7036Z" fill="#E1E4E5"/>
<path d="M57.9437 22.8885H57.9892C58.2599 26.7216 61.1106 26.7808 61.1106 26.7808C61.1106 26.7808 57.967 26.8421 57.967 31.2713C57.967 26.8421 54.8235 26.7808 54.8235 26.7808C54.8235 26.7808 57.673 26.7216 57.9437 22.8885Z" fill="#E1E4E5"/>
<defs>
<linearGradient id="paint0_linear_31_220" x1="104.844" y1="56.0223" x2="134.135" y2="42.184" gradientUnits="userSpaceOnUse">
<stop stop-color="white"/>
<stop offset="1" stop-color="#EEEEEE"/>
</linearGradient>
<linearGradient id="paint1_linear_31_220" x1="50.2357" y1="39.0388" x2="26.3558" y2="13.8581" gradientUnits="userSpaceOnUse">
<stop stop-color="white"/>
<stop offset="1" stop-color="#EEEEEE"/>
</linearGradient>
</defs>
</svg>
