<svg width="411" height="274" viewBox="0 0 411 274" fill="none" xmlns="http://www.w3.org/2000/svg">
<path d="M319.018 160.699L318.583 163.07C314.873 183.064 301.184 199.093 282.622 204.185C280.233 204.844 277.795 205.311 275.332 205.582C257.533 207.565 238.56 199.292 226.702 184.367C219.728 175.59 214.739 164.431 205.347 158.811C193.113 151.488 178.332 156.276 165.593 161.181C152.843 166.097 138.05 170.838 125.84 163.457C118.197 158.846 113.266 150.209 110.683 141.362C103.814 117.953 111.728 92.1387 127.331 75.242C142.934 58.3449 165.182 49.5796 187.736 46.7752C219.317 42.8561 253.295 50.4363 279.406 71.3229C305.516 92.209 322.411 127.164 319.018 160.699Z" fill="url(#paint0_linear_96_39)"/>
<path d="M108.801 136.799C113.941 125.911 109.281 112.917 98.3929 107.777C87.5046 102.637 74.5106 107.297 69.3704 118.185C64.2306 129.074 68.8904 142.067 79.7787 147.207C90.667 152.348 103.661 147.688 108.801 136.799Z" fill="#FF683B"/>
<path d="M107.77 133.517C107.787 134.272 108.596 134.744 109.262 134.386L117.746 129.835C118.462 129.451 118.457 128.422 117.736 128.045L109.047 123.493C108.364 123.135 107.547 123.642 107.564 124.413L107.77 133.517Z" fill="#FF683B"/>
<path d="M81.3762 128.059C81.3694 128.443 81.2871 128.821 81.1338 129.173C80.9805 129.525 80.7593 129.843 80.4829 130.11C80.2065 130.376 79.8802 130.586 79.5228 130.726C79.1655 130.866 78.7839 130.934 78.4001 130.927C78.0163 130.92 77.6375 130.838 77.2856 130.685C76.9336 130.531 76.6153 130.31 76.3489 130.034C76.0825 129.757 75.8732 129.431 75.733 129.074C75.5928 128.716 75.5244 128.335 75.5318 127.951C75.5386 127.567 75.6211 127.188 75.7744 126.836C75.9277 126.484 76.1489 126.166 76.4253 125.9C76.7017 125.633 77.0279 125.424 77.3852 125.284C77.7426 125.144 78.1241 125.075 78.5079 125.083C79.2827 125.097 80.0201 125.419 80.5579 125.977C81.0957 126.535 81.39 127.284 81.3762 128.059ZM91.5288 128.489C91.3644 130.094 89.9245 131.261 88.3203 131.097C86.716 130.932 85.5483 129.493 85.7127 127.889C85.8771 126.285 87.317 125.117 88.9213 125.281C90.5255 125.451 91.6932 126.885 91.5288 128.489ZM101.075 128.665C100.91 130.269 99.4702 131.437 97.866 131.273C96.2617 131.108 95.094 129.668 95.2584 128.064C95.4228 126.46 96.8627 125.292 98.467 125.457C98.8489 125.496 99.2193 125.61 99.5571 125.793C99.8949 125.975 100.193 126.223 100.436 126.521C100.678 126.819 100.859 127.161 100.968 127.529C101.078 127.897 101.114 128.283 101.075 128.665Z" fill="white"/>
<path fill-rule="evenodd" clip-rule="evenodd" d="M135.289 130.565V213.131C135.289 222.944 143.238 230.893 153.051 230.893H277.374C287.187 230.893 295.136 222.944 295.136 213.131V130.565" fill="#FF683B"/>
<path d="M135.289 130.565V213.131C135.289 222.944 143.238 230.893 153.051 230.893H277.374C287.187 230.893 295.136 222.944 295.136 213.131V130.565" stroke="#FF683B" strokeWidth="26.07" stroke-linecap="round" stroke-linejoin="round"/>
<path fill-rule="evenodd" clip-rule="evenodd" d="M143.159 115.831L205.271 74.0474C208.211 72.0717 211.672 71.0166 215.213 71.0166C218.755 71.0166 222.216 72.0717 225.155 74.0474L287.268 115.831C297.73 122.874 297.73 138.265 287.268 145.307L235.102 180.404C223.078 188.495 207.358 188.495 195.334 180.404L143.167 145.307C132.697 138.265 132.697 122.865 143.159 115.831Z" fill="white" stroke="#FF683B" strokeWidth="26.07" stroke-linecap="round" stroke-linejoin="round"/>
<path d="M191.783 144.066H238.898M185.173 120.23H245.261H185.173Z" stroke="#FF683B" strokeWidth="10" stroke-linecap="round" stroke-linejoin="round"/>
<path d="M328.017 196.196L312.6 211.613C312.039 212.174 312.039 213.085 312.6 213.646C313.162 214.207 314.072 214.207 314.633 213.646L330.05 198.229C330.612 197.667 330.612 196.757 330.05 196.196C329.489 195.634 328.579 195.634 328.017 196.196Z" fill="#E1E4E5"/>
<path d="M326.508 207.235L322.062 211.681C321.501 212.242 321.501 213.152 322.062 213.714C322.624 214.275 323.534 214.275 324.095 213.714L328.542 209.268C329.103 208.706 329.103 207.796 328.542 207.235C327.98 206.673 327.07 206.673 326.508 207.235Z" fill="#E1E4E5"/>
<path d="M240.374 55.5591L255.791 40.142C256.353 39.5806 256.353 38.6704 255.791 38.109C255.23 37.5476 254.32 37.5475 253.758 38.1089L238.341 53.5261C237.78 54.0875 237.78 54.9977 238.341 55.5591C238.903 56.1205 239.813 56.1205 240.374 55.5591Z" fill="#E1E4E5"/>
<path d="M241.883 44.5203L246.329 40.0741C246.891 39.5127 246.891 38.6025 246.329 38.0411C245.768 37.4797 244.858 37.4797 244.296 38.0411L239.85 42.4873C239.289 43.0487 239.289 43.9589 239.85 44.5203C240.411 45.0817 241.322 45.0817 241.883 44.5203Z" fill="#E1E4E5"/>
<path d="M114.614 182.96L100.985 196.589C100.489 197.085 100.489 197.89 100.985 198.386C101.481 198.883 102.286 198.883 102.782 198.386L116.411 184.757C116.908 184.261 116.908 183.456 116.411 182.96C115.915 182.464 115.11 182.464 114.614 182.96Z" fill="#E1E4E5"/>
<path d="M113.28 192.719L109.349 196.649C108.853 197.146 108.853 197.95 109.349 198.447C109.846 198.943 110.65 198.943 111.147 198.447L115.077 194.516C115.573 194.02 115.573 193.215 115.077 192.719C114.581 192.222 113.776 192.222 113.28 192.719Z" fill="#E1E4E5"/>
<path d="M324.306 106.754L337.041 94.0183C337.505 93.5546 337.505 92.8028 337.041 92.3391L337.041 92.3388C336.577 91.8751 335.826 91.8751 335.362 92.3388L322.626 105.074C322.163 105.538 322.163 106.29 322.626 106.753L322.627 106.754C323.091 107.217 323.842 107.217 324.306 106.754Z" fill="#E1E4E5"/>
<path d="M325.552 97.6352L329.225 93.9621C329.689 93.4984 329.689 92.7467 329.225 92.283L329.225 92.2827C328.761 91.819 328.01 91.819 327.546 92.2827L323.873 95.9558C323.409 96.4195 323.409 97.1712 323.873 97.6349L323.873 97.6352C324.337 98.0989 325.089 98.0989 325.552 97.6352Z" fill="#E1E4E5"/>
<path d="M341.488 171.812L336.168 166.745L341.488 161.679L346.807 166.745L341.488 171.812Z" stroke="#E1E4E5" strokeWidth="5.643" stroke-linecap="round" stroke-linejoin="round"/>
<path d="M102.113 169.903C102.113 172.703 99.8438 174.969 97.0408 174.969C94.2382 174.969 91.9805 172.691 91.9805 169.903C91.9805 167.103 94.2492 164.836 97.0522 164.836C99.8548 164.836 102.113 167.103 102.113 169.903Z" stroke="#E1E4E5" strokeWidth="5.547" stroke-miterlimit="10"/>
<path d="M291.041 42.7023C283.956 48.6298 284.375 60.8082 284.375 60.8082C284.375 60.8082 296.281 63.3687 303.363 57.4348C310.448 51.5072 310.032 39.3352 310.032 39.3352C310.032 39.3352 298.126 36.7747 291.041 42.7023Z" fill="url(#paint1_linear_96_39)"/>
<path d="M165.445 64.3502C164.757 66.9189 166.351 69.5779 169.005 70.2891C171.66 71.0004 174.37 69.4946 175.058 66.9259C175.746 64.3572 174.152 61.6983 171.498 60.9871C168.843 60.2758 166.134 61.7816 165.445 64.3502Z" fill="#E1E4E5"/>
<path d="M349.464 130.663C348.266 135.135 343.67 137.788 339.199 136.59C334.727 135.392 332.074 130.796 333.272 126.325C334.47 121.853 339.066 119.2 343.537 120.398C348.009 121.596 350.662 126.192 349.464 130.663Z" fill="#FF683B"/>
<path d="M278.772 81.0365C278.326 82.6997 276.862 83.7523 275.501 83.3877C274.14 83.0231 273.398 81.3792 273.844 79.716C274.289 78.0529 275.754 77.0002 277.115 77.3648C278.476 77.7295 279.217 79.3733 278.772 81.0365Z" fill="#E1E4E5"/>
<path d="M124.351 71.6193H124.454C125.064 79.7274 131.496 79.8521 131.496 79.8521C131.496 79.8521 124.404 79.9822 124.404 89.3508C124.404 79.9822 117.311 79.8521 117.311 79.8521C117.311 79.8521 123.74 79.7274 124.351 71.6193ZM311.299 68.4619H311.387C311.911 74.9484 317.423 75.0484 317.423 75.0484C317.423 75.0484 311.344 75.1525 311.344 82.6473C311.344 75.1525 305.265 75.0484 305.265 75.0484C305.265 75.0484 310.776 74.9484 311.299 68.4619Z" fill="#E1E4E5"/>
<path d="M155.01 208.609L142.891 220.728C142.449 221.17 142.449 221.885 142.89 222.326C143.332 222.768 144.047 222.768 144.489 222.326L156.608 210.207C157.049 209.766 157.049 209.05 156.608 208.609C156.167 208.167 155.451 208.168 155.01 208.609Z" fill="white"/>
<path d="M164.927 208.609L152.808 220.728C152.367 221.17 152.367 221.885 152.808 222.326C153.249 222.768 153.965 222.768 154.406 222.326L166.525 210.207C166.967 209.766 166.967 209.05 166.525 208.609C166.084 208.167 165.369 208.168 164.927 208.609Z" fill="white"/>
<path d="M175.464 208.609L163.345 220.728C162.903 221.17 162.903 221.885 163.345 222.326C163.786 222.768 164.501 222.768 164.943 222.326L177.062 210.207C177.503 209.766 177.504 209.05 177.062 208.609C176.621 208.167 175.905 208.168 175.464 208.609Z" fill="white"/>
<path d="M268.973 224.832C273.73 224.837 280.575 223.599 286.182 218.194C291.789 212.789 288.638 209.43 283.071 208.821C277.505 208.213 270.829 210.751 266.507 216.187C262.185 221.623 265.069 224.827 268.973 224.832Z" fill="url(#paint2_linear_96_39)"/>
<defs>
<linearGradient id="paint0_linear_96_39" x1="209.317" y1="-43.9736" x2="213.057" y2="380.048" gradientUnits="userSpaceOnUse">
<stop stop-color="white"/>
<stop offset="1" stop-color="#EEEEEE"/>
</linearGradient>
<linearGradient id="paint1_linear_96_39" x1="266.544" y1="66.6539" x2="343.414" y2="25.8548" gradientUnits="userSpaceOnUse">
<stop stop-color="white"/>
<stop offset="1" stop-color="#EEEEEE"/>
</linearGradient>
<linearGradient id="paint2_linear_96_39" x1="294.115" y1="226.61" x2="250.841" y2="202.177" gradientUnits="userSpaceOnUse">
<stop stop-color="white"/>
<stop offset="1" stop-color="#EEEEEE"/>
</linearGradient>
</defs>
</svg>
