<svg width="154" height="102" viewBox="0 0 154 102" fill="none" xmlns="http://www.w3.org/2000/svg">
<path fill-rule="evenodd" clip-rule="evenodd" d="M48.7872 24.138C42.4339 24.138 37.2364 29.2971 37.2364 35.6038C37.2364 41.9104 42.4339 47.0696 48.7872 47.0696C50.0617 47.0696 51.1056 48.1058 51.1056 49.3709C51.1056 50.636 50.0617 51.6722 48.7872 51.6722H42.7431C39.6438 51.6722 37.1075 54.1899 37.1075 57.2664C37.1075 60.343 39.6438 62.8606 42.7431 62.8606C45.4237 62.8606 47.617 65.0378 47.617 67.6986C47.617 72.5533 51.6186 76.5253 56.5091 76.5253H108.709C115.062 76.5253 120.26 71.3662 120.26 65.0595C120.26 58.7529 115.062 53.5937 108.709 53.5937H107.591C106.317 53.5937 105.273 52.5587 105.273 51.2924C105.273 50.0271 106.316 48.9909 107.591 48.9909H115.112C118.212 48.9909 120.748 46.4734 120.748 43.3969C120.748 40.3242 118.218 37.8092 115.124 37.8027H109.072C106.392 37.8027 104.198 35.6255 104.198 32.9647C104.198 28.11 100.197 24.138 95.3062 24.138H48.7872Z" fill="url(#paint0_linear_31_191)"/>
<path d="M56.583 39.6108H39.3771C36.2064 39.6108 33.6361 42.1645 33.6361 45.3145V61.7428C33.6361 64.8928 36.2064 67.4465 39.3771 67.4465H56.583C59.7536 67.4465 62.3239 64.8928 62.3239 61.7428V45.3145C62.3239 42.1645 59.7536 39.6108 56.583 39.6108Z" fill="#FF683B"/>
<path d="M50.7343 64.9433L49.2872 63.5057C48.5025 62.726 47.2302 62.7261 46.4455 63.5057L44.9984 64.9433C44.2137 65.723 44.2137 66.9869 44.9984 67.7666L46.4455 69.2042C47.2302 69.9839 48.5025 69.9839 49.2872 69.2042L50.7343 67.7666C51.519 66.9869 51.519 65.723 50.7343 64.9433Z" fill="#FF683B"/>
<path fill-rule="evenodd" clip-rule="evenodd" d="M55.4873 59.6863V60.7696C55.4873 61.3675 55.0025 61.8528 54.4052 61.8528H41.4211C40.8237 61.8528 40.339 61.3675 40.339 60.7696V59.669C40.339 56.3911 44.0807 54.2613 47.9132 54.2613C51.7456 54.2613 55.4873 56.3921 55.4873 59.669V59.6863ZM50.5003 46.3359C51.9662 47.8443 51.9662 50.2898 50.5003 51.7982C49.0345 53.3066 46.6578 53.3066 45.192 51.7982C43.7261 50.2898 43.7261 47.8443 45.192 46.3359C46.6578 44.8277 49.0345 44.8277 50.5003 46.3359Z" fill="white"/>
<path d="M86.5933 19.3725H69.3874C66.2168 19.3725 63.6465 21.9261 63.6465 25.0762V41.5045C63.6465 44.6545 66.2168 47.2082 69.3874 47.2082H86.5933C89.764 47.2082 92.3343 44.6545 92.3343 41.5045V25.0762C92.3343 21.9261 89.764 19.3725 86.5933 19.3725Z" fill="#FF683B"/>
<path d="M80.7444 44.705L79.2973 43.2673C78.5126 42.4877 77.2403 42.4877 76.4556 43.2673L75.0085 44.705C74.2238 45.4846 74.2238 46.7486 75.0085 47.5282L76.4556 48.9659C77.2403 49.7455 78.5126 49.7455 79.2973 48.9659L80.7444 47.5282C81.5291 46.7486 81.5291 45.4846 80.7444 44.705Z" fill="#FF683B"/>
<path fill-rule="evenodd" clip-rule="evenodd" d="M85.4974 39.4478V40.5312C85.4974 41.1291 85.0126 41.6145 84.4154 41.6145H71.4312C70.834 41.6145 70.3492 41.1291 70.3492 40.5312V39.4305C70.3492 36.1525 74.0908 34.0229 77.9233 34.0229C81.7559 34.0229 85.4974 36.1537 85.4974 39.4305V39.4478ZM80.5103 26.0975C81.9762 27.606 81.9762 30.0514 80.5103 31.5598C79.0446 33.0681 76.668 33.0681 75.2021 31.5598C73.7362 30.0514 73.7362 27.606 75.2021 26.0975C76.668 24.5893 79.0446 24.5893 80.5103 26.0975Z" fill="white"/>
<path d="M86.5933 52.9132H69.3874C66.2168 52.9132 63.6465 55.4668 63.6465 58.6169V75.0452C63.6465 78.1952 66.2168 80.7488 69.3874 80.7488H86.5933C89.764 80.7488 92.3343 78.1952 92.3343 75.0452V58.6169C92.3343 55.4668 89.764 52.9132 86.5933 52.9132Z" fill="#FF683B"/>
<path d="M80.7444 78.2455L79.2973 76.8078C78.5126 76.0282 77.2403 76.0282 76.4556 76.8078L75.0086 78.2455C74.2238 79.0251 74.2238 80.2891 75.0085 81.0687L76.4556 82.5064C77.2403 83.286 78.5126 83.286 79.2973 82.5064L80.7444 81.0687C81.5291 80.2891 81.5291 79.0251 80.7444 78.2455Z" fill="#FF683B"/>
<path fill-rule="evenodd" clip-rule="evenodd" d="M85.4974 72.9885V74.0717C85.4974 74.6696 85.0126 75.1549 84.4154 75.1549H71.4312C70.834 75.1549 70.3492 74.6696 70.3492 74.0717V72.9711C70.3492 69.6932 74.0908 67.5634 77.9233 67.5634C81.7559 67.5634 85.4974 69.6942 85.4974 72.9711V72.9885ZM80.5103 59.638C81.9762 61.1464 81.9762 63.5919 80.5103 65.1003C79.0446 66.6087 76.668 66.6087 75.2021 65.1003C73.7362 63.5919 73.7362 61.1464 75.2021 59.638C76.668 58.1298 79.0446 58.1298 80.5103 59.638Z" fill="white"/>
<path d="M116.603 32.8777H99.3976C96.2269 32.8777 93.6566 35.4313 93.6566 38.5813V55.0096C93.6566 58.1597 96.2269 60.7133 99.3976 60.7133H116.603C119.774 60.7133 122.344 58.1597 122.344 55.0096V38.5813C122.344 35.4313 119.774 32.8777 116.603 32.8777Z" fill="#FF683B"/>
<path d="M110.755 58.2103L109.307 56.7726C108.523 55.993 107.25 55.993 106.466 56.7726L105.019 58.2103C104.234 58.9899 104.234 60.2539 105.019 61.0335L106.466 62.4712C107.25 63.2508 108.523 63.2508 109.307 62.4712L110.755 61.0335C111.539 60.2539 111.539 58.9899 110.755 58.2103Z" fill="#FF683B"/>
<path fill-rule="evenodd" clip-rule="evenodd" d="M115.508 52.9531V54.0364C115.508 54.6343 115.023 55.1196 114.426 55.1196H101.441C100.844 55.1196 100.359 54.6343 100.359 54.0364V52.9358C100.359 49.6579 104.101 47.5281 107.933 47.5281C111.766 47.5281 115.508 49.6589 115.508 52.9358V52.9531ZM110.521 39.6029C111.987 41.1111 111.987 43.5567 110.521 45.065C109.055 46.5734 106.678 46.5734 105.212 45.065C103.747 43.5567 103.747 41.1111 105.212 39.6029C106.678 38.0945 109.055 38.0945 110.521 39.6029Z" fill="white"/>
<path fill-rule="evenodd" clip-rule="evenodd" d="M43.735 28.6384V23.1678C43.735 22.601 44.1961 22.142 44.7652 22.142H50.947C51.5163 22.142 51.9774 22.601 51.9774 23.1678V28.6384C51.9775 28.8212 51.9284 29.0007 51.8352 29.1583C51.742 29.316 51.6081 29.446 51.4473 29.535L48.3564 31.2443C48.2034 31.3291 48.0311 31.3736 47.8559 31.3736C47.6808 31.3736 47.5085 31.3291 47.3555 31.2443L44.2646 29.535C44.104 29.4459 43.9702 29.3158 43.8771 29.1582C43.784 29.0006 43.735 28.8211 43.735 28.6384Z" fill="#E1E4E5"/>
<path d="M46.1431 28.2146H49.5696M46.1431 26.6657H49.5696H46.1431ZM46.1431 25.0709H49.5696H46.1431Z" stroke="white" strokeWidth="3.094" stroke-linecap="round" stroke-linejoin="round"/>
<path d="M54.5901 73.1495C54.4452 73.6866 54.766 74.2386 55.3066 74.3825C55.8472 74.5264 56.4028 74.2077 56.5477 73.6707C56.6925 73.1336 56.3717 72.5816 55.8311 72.4377C55.2906 72.2938 54.7349 72.6125 54.5901 73.1495Z" fill="#E1E4E5"/>
<path d="M55.7052 35.3002C55.5604 35.8373 55.8812 36.3893 56.4217 36.5332C56.9623 36.6771 57.5179 36.3584 57.6628 35.8213C57.8076 35.2843 57.4868 34.7322 56.9463 34.5883C56.4057 34.4444 55.85 34.7632 55.7052 35.3002Z" fill="#E1E4E5"/>
<path d="M31.9178 37.3312C31.773 37.8683 32.0938 38.4203 32.6344 38.5642C33.1749 38.7081 33.7306 38.3894 33.8754 37.8523C34.0203 37.3153 33.6995 36.7632 33.1589 36.6193C32.6183 36.4754 32.0627 36.7941 31.9178 37.3312Z" fill="#E1E4E5"/>
<path d="M96.7753 29.5766C96.6304 30.1137 96.9512 30.6657 97.4918 30.8096C98.0324 30.9536 98.588 30.6348 98.7328 30.0978C98.8777 29.5607 98.5569 29.0087 98.0163 28.8648C97.4757 28.7209 96.9201 29.0396 96.7753 29.5766Z" fill="#E1E4E5"/>
<path d="M97.5188 66.6875C97.3739 67.2245 97.6947 67.7765 98.2353 67.9205C98.7759 68.0644 99.3315 67.7456 99.4764 67.2086C99.6212 66.6715 99.3004 66.1195 98.7599 65.9756C98.2193 65.8317 97.6636 66.1504 97.5188 66.6875Z" fill="#E1E4E5"/>
<path fill-rule="evenodd" clip-rule="evenodd" d="M111.535 70.3465H111.04C110.92 70.3465 110.823 70.2496 110.823 70.1316V69.6391C110.823 69.52 110.921 69.4241 111.04 69.4241H111.535C111.654 69.4241 111.752 69.521 111.752 69.6391V70.1316C111.752 70.1598 111.746 70.1878 111.735 70.2139C111.724 70.24 111.708 70.2637 111.688 70.2837C111.668 70.3036 111.644 70.3194 111.618 70.3302C111.592 70.341 111.564 70.3465 111.535 70.3465ZM109.817 70.3465H109.321C109.264 70.3463 109.209 70.3236 109.168 70.2833C109.128 70.2431 109.105 70.1886 109.105 70.1316V69.6391C109.105 69.52 109.202 69.4241 109.321 69.4241H109.817C109.935 69.4241 110.033 69.521 110.033 69.6391V70.1316C110.033 70.1885 110.01 70.243 109.969 70.2833C109.929 70.3235 109.874 70.3462 109.817 70.3465ZM108.097 70.3465H107.601C107.544 70.3462 107.489 70.3235 107.449 70.2833C107.408 70.243 107.385 70.1885 107.385 70.1316V69.6391C107.385 69.52 107.482 69.4241 107.601 69.4241H108.097C108.216 69.4241 108.313 69.521 108.313 69.6391V70.1316C108.313 70.1599 108.308 70.1878 108.297 70.2139C108.286 70.24 108.27 70.2638 108.25 70.2837C108.23 70.3037 108.206 70.3195 108.18 70.3303C108.153 70.3411 108.125 70.3466 108.097 70.3465ZM106.378 70.3465H105.883C105.825 70.3462 105.77 70.3235 105.73 70.2833C105.689 70.243 105.667 70.1885 105.666 70.1316V69.6391C105.666 69.52 105.764 69.4241 105.883 69.4241H106.378C106.498 69.4241 106.596 69.521 106.596 69.6391V70.1316C106.595 70.1886 106.572 70.2431 106.531 70.2832C106.491 70.3234 106.436 70.3461 106.378 70.3465ZM104.66 70.3465H104.164C104.106 70.3465 104.051 70.324 104.01 70.2837C103.97 70.2434 103.947 70.1887 103.946 70.1316V69.6391C103.946 69.52 104.044 69.4241 104.164 69.4241H104.66C104.778 69.4241 104.876 69.521 104.876 69.6391V70.1316C104.876 70.1885 104.853 70.243 104.812 70.2833C104.772 70.3235 104.717 70.3462 104.66 70.3465ZM109.754 68.4847H109.258C109.201 68.4844 109.146 68.4617 109.105 68.4214C109.065 68.3811 109.042 68.3266 109.042 68.2696V67.7761C109.042 67.6581 109.139 67.5612 109.258 67.5612H109.754C109.874 67.5612 109.97 67.6581 109.97 67.7761V68.2686C109.97 68.2969 109.965 68.325 109.954 68.3513C109.943 68.3775 109.927 68.4013 109.907 68.4214C109.887 68.4415 109.863 68.4574 109.837 68.4683C109.81 68.4791 109.782 68.4847 109.754 68.4847ZM108.035 68.4847H107.539C107.482 68.4844 107.427 68.4616 107.387 68.4214C107.346 68.3811 107.323 68.3265 107.323 68.2696V67.7761C107.323 67.6581 107.42 67.5612 107.539 67.5612H108.035C108.154 67.5612 108.251 67.6581 108.251 67.7761V68.2686C108.252 68.2969 108.246 68.325 108.235 68.3513C108.225 68.3775 108.209 68.4013 108.188 68.4214C108.168 68.4415 108.144 68.4574 108.118 68.4683C108.092 68.4791 108.063 68.4847 108.035 68.4847ZM106.316 68.4847H105.821C105.701 68.4847 105.603 68.3878 105.603 68.2696V67.7761C105.603 67.6581 105.701 67.5612 105.821 67.5612H106.316C106.435 67.5612 106.533 67.6581 106.533 67.7761V68.2686C106.533 68.3257 106.51 68.3805 106.469 68.421C106.429 68.4615 106.374 68.4844 106.316 68.4847ZM108.097 72.3467H107.601C107.544 72.3464 107.489 72.3237 107.448 72.2834C107.408 72.2431 107.385 72.1886 107.385 72.1317V71.6393C107.385 71.5202 107.482 71.4243 107.601 71.4243H108.097C108.216 71.4243 108.313 71.5212 108.313 71.6393V72.1317C108.313 72.1599 108.308 72.1879 108.297 72.214C108.286 72.2402 108.27 72.2639 108.25 72.2839C108.23 72.3039 108.206 72.3197 108.18 72.3305C108.153 72.3413 108.125 72.3468 108.097 72.3467ZM106.378 72.3467H105.883C105.825 72.3464 105.77 72.3237 105.73 72.2834C105.689 72.2431 105.666 72.1886 105.666 72.1317V71.6393C105.666 71.5202 105.764 71.4243 105.883 71.4243H106.378C106.498 71.4243 106.596 71.5212 106.596 71.6393V72.1317C106.595 72.1887 106.572 72.2432 106.531 72.2834C106.491 72.3236 106.436 72.3464 106.378 72.3467Z" fill="#E1E4E5"/>
<path d="M59.2357 26.9794L55.8519 30.3413C55.7287 30.4637 55.7287 30.6622 55.8519 30.7846C55.9751 30.907 56.1749 30.907 56.2981 30.7846L59.6819 27.4227C59.8052 27.3003 59.8052 27.1018 59.6819 26.9794C59.5587 26.857 59.3589 26.857 59.2357 26.9794Z" fill="#E1E4E5"/>
<path d="M58.9044 29.3865L57.9284 30.3561C57.8052 30.4785 57.8052 30.677 57.9284 30.7994C58.0517 30.9218 58.2514 30.9218 58.3747 30.7994L59.3506 29.8298C59.4738 29.7074 59.4738 29.5089 59.3506 29.3865C59.2274 29.264 59.0276 29.264 58.9044 29.3865Z" fill="#E1E4E5"/>
<path d="M43.661 76.9572L47.0448 73.5954C47.1681 73.473 47.1681 73.2745 47.0448 73.1521C46.9216 73.0296 46.7218 73.0296 46.5986 73.1521L43.2148 76.5139C43.0915 76.6363 43.0915 76.8348 43.2148 76.9572C43.338 77.0797 43.5378 77.0797 43.661 76.9572Z" fill="#E1E4E5"/>
<path d="M43.9921 74.5502L44.9681 73.5806C45.0913 73.4581 45.0913 73.2596 44.9681 73.1372C44.8448 73.0148 44.645 73.0148 44.5218 73.1372L43.5459 74.1068C43.4227 74.2292 43.4227 74.4277 43.5459 74.5502C43.6691 74.6726 43.8689 74.6726 43.9921 74.5502Z" fill="#E1E4E5"/>
<path d="M107.775 29.6918L111.159 26.3299C111.282 26.2075 111.282 26.009 111.159 25.8866C111.036 25.7642 110.836 25.7642 110.713 25.8866L107.329 29.2484C107.206 29.3709 107.206 29.5693 107.329 29.6918C107.452 29.8142 107.652 29.8142 107.775 29.6918Z" fill="#E1E4E5"/>
<path d="M108.106 27.2847L109.082 26.3151C109.205 26.1927 109.205 25.9942 109.082 25.8718C108.959 25.7494 108.759 25.7494 108.636 25.8718L107.66 26.8414C107.537 26.9638 107.537 27.1623 107.66 27.2847C107.783 27.4072 107.983 27.4072 108.106 27.2847Z" fill="#E1E4E5"/>
<defs>
<linearGradient id="paint0_linear_31_191" x1="80.7111" y1="105.897" x2="79.6993" y2="-32.8621" gradientUnits="userSpaceOnUse">
<stop stop-color="white"/>
<stop offset="1" stop-color="#EEEEEE"/>
</linearGradient>
</defs>
</svg>
