<svg width="170" height="112" viewBox="0 0 170 112" fill="none" xmlns="http://www.w3.org/2000/svg">
<path d="M133.261 70.1043H123.936C121.651 70.1043 119.737 68.5677 119.737 66.6213C119.737 65.6482 120.231 64.7774 120.972 64.1627C121.713 63.5482 122.763 63.1383 123.936 63.1383H125.295C126.468 63.1383 127.518 62.7286 128.259 62.1139C129 61.4994 129.494 60.6286 129.494 59.6555C129.494 57.7603 127.641 56.1725 125.295 56.1725H96.813C96.069 56.1725 95.5907 55.2686 95.5907 54.5333C95.5907 52.6895 93.7999 51.204 91.5766 51.204H80.9777C80.7097 51.204 80.4526 51.0987 80.2631 50.9114C80.0735 50.7241 79.9671 50.4701 79.9671 50.2052C79.9671 49.9403 80.0735 49.6863 80.2631 49.499C80.4526 49.3117 80.7097 49.2064 80.9777 49.2064H121.589C123.38 49.2064 125.048 48.5917 126.221 47.6187C127.394 46.6454 128.135 45.2625 128.135 43.7771C128.135 40.7551 125.171 38.3477 121.589 38.3477H100.614C97.3228 38.3477 94.0651 35.8379 90.7739 35.8379H79.0627C77.3452 35.8379 75.9529 34.462 75.9529 32.7647C75.9529 31.0675 77.3452 29.6916 79.0627 29.6916H105.286C106.521 29.6916 107.695 29.2816 108.497 28.6158C109.3 27.95 109.794 27.028 109.794 25.9524C109.794 23.9036 107.756 22.2133 105.286 22.2133H44.8287C43.5938 22.2133 42.4204 22.6231 41.6176 23.2889C40.8148 23.9547 40.3207 24.8769 40.3207 25.9524C40.3207 28.0013 42.3586 29.6916 44.8287 29.6916H46.3727C48.4104 29.6916 50.1397 31.0744 50.1397 32.816C50.1397 33.6866 49.7073 34.4549 49.0281 35.0185C48.3488 35.5818 47.4225 35.9404 46.3727 35.9404H38.9004C37.6035 35.9404 36.3684 36.4013 35.5038 37.1185C34.6393 37.8355 34.0836 38.8087 34.0836 39.9356C34.0836 42.1381 36.2448 43.8795 38.8387 43.8795H46.4345C48.9046 43.8795 50.9425 45.5698 50.9425 47.6187C50.9425 48.6431 50.4483 49.565 49.6456 50.2309C48.8428 50.8967 47.7312 51.3064 46.496 51.3064H39.7032C38.5916 51.3064 37.6035 51.665 36.8625 52.2797C36.1215 52.8942 35.6891 53.7139 35.6891 54.6358C35.6891 56.4797 37.48 57.9652 39.7032 57.9652H45.1993C48.3488 57.9652 50.8807 60.0652 50.8807 62.6774C50.8807 63.958 50.263 65.1872 49.2134 66.0066C48.1635 66.8774 46.7431 67.3896 45.1993 67.3896H37.5418C35.998 67.3896 34.5775 67.9019 33.5894 68.7727C32.5396 69.5921 31.9221 70.7702 31.9221 72.0507C31.9221 74.6118 34.454 76.7118 37.5418 76.7118H61.1869C63.7983 76.7118 66.3634 78.1459 68.9748 78.1459H73.2814C74.9274 78.1459 76.2617 79.4645 76.2617 81.0912C76.2617 82.7176 74.9274 84.0362 73.2814 84.0362H62.7992C61.4407 84.0362 60.2674 84.4973 59.4028 85.2143C58.5383 85.9314 57.9824 86.9559 57.9824 88.0314C57.9824 90.2339 60.1438 92.0267 62.7992 92.0267H127.024C128.382 92.0267 129.556 91.5656 130.42 90.8486C131.285 90.1314 131.841 89.107 131.841 88.0314C131.841 85.8289 129.679 84.0362 127.024 84.0362H125.109C123.133 84.0362 121.589 82.7045 121.589 81.1167C121.589 80.2973 121.96 79.5801 122.639 79.0679C123.257 78.5557 124.183 78.1971 125.171 78.1971H133.261C134.62 78.1971 135.793 77.7362 136.657 77.019C137.522 76.302 138.078 75.2776 138.078 74.202C138.078 71.8971 135.916 70.1043 133.261 70.1043Z" fill="url(#paint0_linear_31_4)"/>
<path d="M112.578 31.6609V84.9421C112.578 88.8289 109.393 92.0267 105.411 92.0267H103.072C101.629 92.0267 100.434 91.2395 99.439 90.2063C97.8463 88.4845 97.0003 86.2213 97.0003 83.8598V77.7101C97.0003 75.2502 94.9597 73.2331 92.4713 73.2331H63.6555V31.6609C63.6555 29.447 65.497 27.6266 67.7365 27.6266H108.497C110.786 27.6266 112.578 29.447 112.578 31.6609Z" fill="#FF683B"/>
<path d="M101.055 95.5733H55.7225C50.6212 95.5733 46.4666 91.5199 46.4666 86.543V80.6424C46.4666 78.0771 48.6227 75.9733 51.2522 75.9733H89.9063C92.5358 75.9733 94.692 78.0771 94.692 80.6424V87.0561C94.692 89.4676 95.586 91.879 97.269 93.6749C98.2682 94.7524 99.5304 95.5733 101.055 95.5733Z" fill="#FF683B"/>
<path d="M74.8943 44.8C76.5113 44.8 77.8221 43.5046 77.8221 41.9067C77.8221 40.3087 76.5113 39.0133 74.8943 39.0133C73.2774 39.0133 71.9666 40.3087 71.9666 41.9067C71.9666 43.5046 73.2774 44.8 74.8943 44.8Z" fill="white"/>
<path d="M74.8943 54.1333C76.5113 54.1333 77.8221 52.838 77.8221 51.24C77.8221 49.6421 76.5113 48.3467 74.8943 48.3467C73.2774 48.3467 71.9666 49.6421 71.9666 51.24C71.9666 52.838 73.2774 54.1333 74.8943 54.1333Z" fill="white"/>
<path d="M74.8943 63.4667C76.5113 63.4667 77.8221 62.1713 77.8221 60.5733C77.8221 58.9754 76.5113 57.68 74.8943 57.68C73.2774 57.68 71.9666 58.9754 71.9666 60.5733C71.9666 62.1713 73.2774 63.4667 74.8943 63.4667Z" fill="white"/>
<path d="M101.717 39.0133H84.3389C82.7219 39.0133 81.4111 40.3087 81.4111 41.9067C81.4111 43.5046 82.7219 44.8 84.3389 44.8H101.717C103.334 44.8 104.644 43.5046 104.644 41.9067C104.644 40.3087 103.334 39.0133 101.717 39.0133Z" fill="white"/>
<path d="M101.622 48.3466H84.4334C82.7642 48.3466 81.4111 49.6838 81.4111 51.3333C81.4111 52.9828 82.7642 54.32 84.4334 54.32H101.622C103.291 54.32 104.644 52.9828 104.644 51.3333C104.644 49.6838 103.291 48.3466 101.622 48.3466Z" fill="white"/>
<path d="M101.717 57.68H84.3389C82.7219 57.68 81.4111 58.9754 81.4111 60.5733C81.4111 62.1713 82.7219 63.4667 84.3389 63.4667H101.717C103.334 63.4667 104.644 62.1713 104.644 60.5733C104.644 58.9754 103.334 57.68 101.717 57.68Z" fill="white"/>
<defs>
<linearGradient id="paint0_linear_31_4" x1="87.2634" y1="131.168" x2="85.8475" y2="-53.7459" gradientUnits="userSpaceOnUse">
<stop stop-color="white"/>
<stop offset="1" stop-color="#EEEEEE"/>
</linearGradient>
</defs>
</svg>
