<svg width="171" height="114" viewBox="0 0 171 114" fill="none" xmlns="http://www.w3.org/2000/svg">
<path d="M58.7264 16.2957C79.1461 15.1105 100.555 21.283 97.408 30.2309C94.2608 39.1788 114.232 27.053 122.202 30.279C127.877 32.5755 125.608 39.5675 128.353 42.3848C134.647 48.8441 141.084 40.7102 149.095 45.5907C157.105 50.4712 140.705 96.0226 132.336 96.2768L36.8884 95.6969L30.0389 95.0813C30.0389 95.0813 11.0921 84.7195 24.6456 75.1612C33.8098 68.6981 27.2159 64.0047 26.2191 61.0459C25.0748 57.6485 22.4047 51.7153 34.039 47.3613C45.6734 43.0073 42.6695 33.5327 42.3832 31.5714C42.0975 29.609 38.3073 17.4808 58.7264 16.2957Z" fill="url(#paint0_linear_31_138)"/>
<path fill-rule="evenodd" clip-rule="evenodd" d="M62.0824 60.0803C53.3122 56.8881 48.79 47.1914 51.9818 38.4224C55.1734 29.6531 64.8707 25.1319 73.6409 28.3239C82.4111 31.5161 86.9333 41.2127 83.7415 49.982C80.5498 58.7512 70.8526 63.2723 62.0824 60.0803Z" fill="#E1E4E5"/>
<path fill-rule="evenodd" clip-rule="evenodd" d="M63.4593 56.21C56.8089 53.7896 53.3798 46.4368 55.8 39.7873C58.2202 33.1377 65.5734 29.7093 72.2236 32.1299C78.874 34.5504 82.3031 41.9032 79.8829 48.5528C77.4627 55.2022 70.1095 58.6306 63.4593 56.21Z" fill="white"/>
<path d="M70.4249 60.0239C69.9758 58.6414 70.7323 57.1568 72.1148 56.7076C73.497 56.2584 74.9819 57.0148 75.431 58.3973L77.4853 64.7197L72.4792 66.3461L70.4249 60.0239Z" fill="#E1E4E5"/>
<path d="M76.9742 62.9925L71.6139 64.7342C70.9841 64.9388 70.6395 65.6152 70.8441 66.2449L78.6179 90.1702C78.8225 90.7999 79.4989 91.1446 80.1286 90.9399L85.4889 89.1983C86.1187 88.9937 86.4633 88.3173 86.2587 87.6876L78.4849 63.7623C78.2803 63.1325 77.6039 62.7879 76.9742 62.9925Z" fill="#684926"/>
<path fill-rule="evenodd" clip-rule="evenodd" d="M104.171 83.5764L102.309 80.6576C100.024 77.0752 96.7854 74.2005 92.9573 72.3563L85.3223 68.6785C84.0915 68.0855 82.7428 67.7776 81.3766 67.7775H79.7563L80.3721 69.8212L71.6961 67.7021C70.6866 67.4555 69.6929 68.1604 69.5919 69.1946C69.5625 69.4948 69.6132 69.7975 69.7388 70.0717C69.8644 70.346 70.0605 70.5821 70.307 70.756L72.7054 72.4474C71.2027 73.1713 70.9942 75.2269 72.321 76.2377L73.5397 77.1662C72.3829 77.8815 72.3161 79.5395 73.4114 80.3457L75.1794 81.647C75.0701 82.1997 75.1479 82.7731 75.4005 83.2768C75.6531 83.7805 76.066 84.1858 76.5743 84.4289L78.4648 85.3326C78.7448 85.4665 79.0362 85.5753 79.3354 85.6575L88.0775 88.0612L97.8336 94.6017L104.171 83.5764Z" fill="#F8AE9D"/>
<path fill-rule="evenodd" clip-rule="evenodd" d="M120.333 96.1398L99.1862 75.8904L84.6274 90.5686L90.469 96.1398H120.333Z" fill="#FF683B"/>
<path d="M99.7499 80.75C99.1203 80.75 98.6099 81.2604 98.6099 81.89C98.6099 82.5196 99.1203 83.03 99.7499 83.03C100.379 83.03 100.89 82.5196 100.89 81.89C100.89 81.2604 100.379 80.75 99.7499 80.75Z" fill="white"/>
<path d="M61.322 94.5406C49.9974 90.4064 42.0763 80.5463 37.4258 73.0033C32.3764 64.814 29.9832 57.5098 29.9596 57.4366L29.4597 57.636C29.4833 57.7091 31.8934 65.0686 36.9742 73.3132C41.6695 80.9317 49.6727 90.892 61.1377 95.0779L61.322 94.5406Z" fill="#FF683B"/>
<path d="M30.4025 54.7825C31.4327 56.7302 31.6124 58.9437 31.0608 60.8621C29.2608 60.4217 27.5912 59.1455 26.5609 57.1978C25.5295 55.2501 25.3496 53.0364 25.9014 51.1182C27.7024 51.5586 29.371 52.8348 30.4025 54.7825ZM29.2934 62.2309C30.23 62.5987 31.0794 63.158 31.7873 63.873C32.4952 64.588 33.0461 65.4429 33.4047 66.383C31.7148 67.2685 29.6362 67.4318 27.6676 66.6567C26.7313 66.2885 25.8821 65.7291 25.1742 65.0141C24.4663 64.2992 23.9153 63.4444 23.5564 62.5045C25.2463 61.6179 27.3249 61.4559 29.2934 62.2309ZM30.8463 73.6843C33.7564 73.2686 35.9678 71.893 35.7857 70.6118C35.6035 69.3306 33.0969 68.6291 30.1868 69.045C27.2768 69.461 25.0654 70.8366 25.2474 72.1175C25.4296 73.3987 27.9363 74.1002 30.8463 73.6843ZM34.8396 80.1977C37.7496 79.7819 39.961 78.4063 39.7788 77.1252C39.5968 75.844 37.0901 75.1425 34.1799 75.5584C31.2698 75.9743 29.0584 77.3499 29.2406 78.6309C29.4226 79.9121 31.9293 80.6136 34.8396 80.1977Z" fill="#FF683B"/>
<path d="M33.9854 65.3974C34.1 63.3416 34.955 61.4851 36.2134 60.2178C37.3325 61.4424 37.983 63.2717 37.8685 65.3275C37.7539 67.3833 36.8989 69.2398 35.6403 70.5071C34.5203 69.2825 33.8709 67.4532 33.9854 65.3974ZM38.1538 72.1382C38.2382 70.0813 39.0674 68.209 40.3065 66.9193C41.4448 68.1213 42.1212 69.9371 42.0369 71.994C41.9527 74.051 41.1233 75.9232 39.883 77.2131C38.747 76.011 38.0697 74.1952 38.1538 72.1382ZM41.1135 82.2755C41.9179 81.8497 42.8022 81.8362 43.5481 82.1606C43.3201 83.0009 42.7629 83.7512 41.9595 84.177C41.1549 84.6028 40.2706 84.6163 39.5247 84.2918C39.7515 83.4516 40.309 82.7013 41.1135 82.2755ZM56.9329 95.1691C52.5308 89.8801 51.4508 82.7421 51.3201 77.6859C51.1778 72.196 52.0924 67.905 52.1017 67.8623L51.7977 67.8173C51.7884 67.86 50.8664 72.1831 51.0083 77.709C51.1396 82.8155 52.2313 90.0265 56.6878 95.3813L56.9329 95.1691Z" fill="#FF683B"/>
<path d="M53.0818 66.6796C53.0314 67.9362 52.4852 69.0802 51.6625 69.8685C50.9006 69.1347 50.4429 68.0261 50.4932 66.7692C50.543 65.5124 51.0894 64.3684 51.912 63.5801C52.6744 64.314 53.1316 65.4225 53.0818 66.6796ZM50.3977 70.0368C50.7543 70.4871 51.0129 71.0068 51.1572 71.5627C51.3014 72.1186 51.3279 72.6985 51.2352 73.2653C50.1472 73.2174 49.0747 72.7016 48.3257 71.7544C47.9693 71.3042 47.7107 70.7845 47.5665 70.2286C47.4223 69.6728 47.3956 69.0929 47.4882 68.5262C48.5763 68.5735 49.6487 69.0897 50.3977 70.0368ZM47.8781 76.1341C49.4334 76.7638 50.9194 76.7195 51.197 76.0351C51.4746 75.3506 50.4389 74.2854 48.8837 73.6558C47.3284 73.0261 45.8424 73.0704 45.5648 73.7548C45.287 74.4393 46.3229 75.5045 47.8781 76.1341ZM47.9797 80.4939C49.5351 81.1235 51.021 81.0791 51.2986 80.3947C51.5764 79.7103 50.5405 78.645 48.9854 78.0153C47.43 77.3857 45.9441 77.4301 45.6665 78.1145C45.3889 78.7989 46.4246 79.8642 47.9797 80.4939Z" fill="#FF683B"/>
<path d="M51.8044 72.9455C52.4507 71.964 53.4053 71.2931 54.3899 71.0288C54.5907 71.9541 54.387 73.0434 53.7407 74.0251C53.0943 75.0066 52.1397 75.6774 51.1551 75.9418C50.9537 75.0162 51.1582 73.9271 51.8044 72.9455ZM51.9275 77.4677C52.5592 76.4769 53.5056 75.791 54.4872 75.51C54.704 76.4296 54.5168 77.5198 53.8851 78.5106C53.2533 79.5015 52.3071 80.1874 51.325 80.468C51.1091 79.549 51.2959 78.4586 51.9275 77.4677ZM50.4797 83.319C50.9988 83.3397 51.439 83.5867 51.7141 83.9608C51.3603 84.3102 50.8701 84.5205 50.3516 84.5C49.8325 84.4795 49.3923 84.2325 49.1172 83.8582C49.4702 83.5088 49.9604 83.2984 50.4797 83.319Z" fill="#FF683B"/>
<path d="M70.1112 96.1736C69.1061 94.7929 63.5129 87.4526 59.8147 86.139C55.7327 84.6889 59.4634 90.087 59.4634 90.087C59.4634 90.087 52.3849 81.9012 49.6816 82.5425C47.2038 83.1303 49.5196 88.144 49.5196 88.144C49.5196 88.144 46.8295 85.3275 43.4713 85.2302C40.2029 85.1358 45.4526 95.2478 45.7372 95.776L70.1112 96.1736ZM127.465 88.1815C119.581 79.6689 117.122 67.7751 116.447 59.2973C115.715 50.0924 116.869 42.8114 116.88 42.7396L116.365 42.6892C116.353 42.7622 115.189 50.0966 115.925 59.3623C116.605 67.9244 119.09 79.9398 127.072 88.5584L127.465 88.1815Z" fill="#FF683B"/>
<path d="M118.423 40.6724C118.452 42.7869 117.635 44.7515 116.322 46.1436C114.973 44.9753 114.103 43.1519 114.075 41.0379C114.046 38.9234 114.863 36.9588 116.177 35.5667C117.525 36.734 118.394 38.558 118.423 40.6724ZM114.208 46.5316C114.848 47.256 115.33 48.106 115.622 49.0273C115.915 49.9486 116.012 50.9208 115.908 51.8818C114.072 51.8922 112.221 51.1157 110.875 49.5879C109.529 48.0601 108.97 46.0991 109.175 44.2387C111.011 44.2275 112.862 45.0038 114.208 46.5316ZM110.514 56.9791C113.188 57.9067 115.685 57.7083 116.091 56.5362C116.497 55.3639 114.658 53.6617 111.984 52.7343C109.309 51.8067 106.812 52.0051 106.407 53.1774C106.001 54.3495 107.84 56.0517 110.514 56.9791ZM111.077 64.2888C113.752 65.2164 116.248 65.018 116.654 63.8459C117.06 62.6736 115.221 60.9714 112.547 60.044C109.873 59.1164 107.376 59.3148 106.97 60.4871C106.564 61.6592 108.403 63.3614 111.077 64.2888Z" fill="#FF683B"/>
<path d="M116.837 51.2985C117.836 49.5966 119.383 48.3911 121.016 47.8652C121.437 49.4019 121.192 51.2477 120.192 52.9496C119.193 54.6514 117.647 55.8571 116.013 56.3829C115.591 54.8458 115.837 53.0003 116.837 51.2985ZM117.451 58.8795C118.425 57.1634 119.956 55.933 121.583 55.3795C122.03 56.9054 121.813 58.751 120.839 60.4673C119.865 62.1834 118.334 63.4138 116.706 63.9669C116.26 62.4429 116.476 60.5967 117.451 58.8795ZM115.54 68.8239C116.415 68.8153 117.179 69.1934 117.675 69.7986C117.111 70.4144 116.305 70.8082 115.43 70.8174C114.555 70.8259 113.792 70.448 113.295 69.8427C113.858 69.2265 114.664 68.8324 115.54 68.8239ZM120.604 83.3152C120.604 83.3152 116.336 73.88 117.763 71.7748C119.735 68.8651 122.187 77.7932 122.306 77.0083C123.436 69.5976 123.199 60.2511 128.482 58.8348C131.484 58.0298 128.284 65.8152 128.656 67.8213C129.029 69.8271 134.024 62.6656 137.1 58.8762C140.177 55.0875 142.06 57.1778 140.277 61.7745C138.553 66.2194 132.306 71.4278 133.704 71.8736C135.103 72.3191 142.944 66.1272 144.125 68.4091C145.575 71.2071 133.496 76.1461 134.708 76.7036C135.92 77.2608 141.674 74.6413 141.674 76.8698C141.674 79.0983 133.722 79.6558 133.929 80.6195C134.264 82.1797 139.259 78.1848 139.649 80.35C140.048 82.5643 132.869 82.7323 133.119 84.4645C133.264 85.4597 135.072 84.4181 135.399 85.7865C136.144 88.9067 124.831 93.2795 124.831 93.2795L120.604 83.3152Z" fill="#FF683B"/>
<path d="M109.991 84.6993C107.646 85.7956 108.278 88.5185 108.278 88.5185C108.278 88.5185 101.92 83.5635 99.5432 86.4555C97.1659 89.3477 98.4156 95.0159 101.203 95.9378C103.991 96.8591 128.24 96.2133 128.24 96.2133C128.24 96.2133 112.1 83.7134 109.991 84.6993Z" fill="#684926"/>
<path d="M120.668 95.9489C120.668 95.9489 128.116 86.4065 131.228 84.9441C134.546 83.3859 131.669 88.7849 131.669 88.7849C131.669 88.7849 138.763 81.8307 140.429 83.5671C142.095 85.3034 140.316 86.9283 140.316 86.9283C140.316 86.9283 146.255 85.8266 147.121 88.0477C148.452 91.4601 138.683 93.157 138.683 93.157C138.683 93.157 143.363 92.132 142.427 94.2446C141.015 97.4299 120.668 95.9489 120.668 95.9489Z" fill="#FF683B"/>
<path d="M128.24 96.1896C128.24 96.1896 116.372 97.0269 114.062 94.9062C111.75 92.7854 114.043 88.943 114.043 88.943C114.043 88.943 109.97 85.7303 110.034 83.6325C110.097 81.5347 112.75 82.5993 112.75 82.5993C112.75 82.5993 108.254 76.821 109.32 75.7217C111.306 73.6752 116.505 79.6813 116.505 79.6813C116.505 79.6813 114.962 76.8241 116.59 76.3705C119.044 75.6862 120.85 82.7329 120.85 82.7329C120.85 82.7329 120.392 79.9499 122.084 80.3197C125.121 80.9826 128.24 96.1896 128.24 96.1896Z" fill="#FF683B"/>
<path d="M41.54 51.3178C42.5332 51.3178 43.3384 52.123 43.3384 53.1162C43.3384 54.1094 42.5332 54.9146 41.54 54.9146C40.5468 54.9146 39.7417 54.1094 39.7417 53.1162C39.7417 52.123 40.5468 51.3178 41.54 51.3178Z" fill="#FF683B"/>
<path d="M75.709 21.5452C75.1572 21.5452 74.71 21.9925 74.71 22.5443C74.71 23.096 75.1572 23.5433 75.709 23.5433C76.2607 23.5433 76.708 23.096 76.708 22.5443C76.708 21.9925 76.2607 21.5452 75.709 21.5452Z" fill="#E1E4E5"/>
<path d="M123.266 30.1372C122.714 30.1372 122.267 30.5845 122.267 31.1362C122.267 31.688 122.714 32.1353 123.266 32.1353C123.817 32.1353 124.265 31.688 124.265 31.1362C124.265 30.5845 123.817 30.1372 123.266 30.1372Z" fill="#E1E4E5"/>
<path d="M36.8444 35.3324C36.3477 35.3324 35.9451 35.735 35.9451 36.2317C35.9451 36.7283 36.3477 37.1309 36.8444 37.1309C37.341 37.1309 37.7437 36.7283 37.7437 36.2317C37.7437 35.735 37.341 35.3324 36.8444 35.3324Z" fill="#E1E4E5"/>
<path d="M98.2568 23.9399C99.898 24.3797 100.872 26.0666 100.432 27.7078C99.9924 29.349 98.3055 30.323 96.6643 29.8832C95.0231 29.4435 94.0491 27.7565 94.4889 26.1153C94.9286 24.4741 96.6156 23.5002 98.2568 23.9399Z" fill="#FF683B"/>
<defs>
<linearGradient id="paint0_linear_31_138" x1="88.3034" y1="141.201" x2="86.7974" y2="-71.0325" gradientUnits="userSpaceOnUse">
<stop stop-color="white"/>
<stop offset="1" stop-color="#EEEEEE"/>
</linearGradient>
</defs>
</svg>
