<svg width="149" height="100" viewBox="0 0 149 100" fill="none" xmlns="http://www.w3.org/2000/svg">
<path d="M109.957 30.2588C107.08 20.8057 82.214 8.60483 62.5688 23.772C53.4321 30.8267 56.2681 35.8893 51.0074 45.8838C47.8716 51.8408 42.3172 57.5207 42.6882 64.3597C43.0072 70.2633 46.0757 75.6025 50.2266 78.2797C59.5618 84.3002 74.3524 85.3222 82.0847 67.5508C89.8169 49.7795 117.374 54.6403 109.957 30.2588Z" fill="url(#paint0_linear_10_250)"/>
<path d="M123.852 54.3207C120.773 51.3967 116.297 52.2745 109.579 55.1358C104.527 57.2888 99.8983 59.1818 95.5786 63.6868C92.5549 66.8387 90.5112 70.4563 89.223 73.7502C87.8268 77.3187 85.6523 81.5747 88.2204 84.3102C91.749 88.0674 105.329 87.8829 115.482 77.9677C126.635 67.074 126.864 57.178 123.852 54.3207Z" fill="url(#paint1_linear_10_250)"/>
<path d="M49.1786 30.7182C45.7635 39.8853 42.3453 49.5715 36.0929 55.5748C29.6442 61.769 27.5691 59.5832 25.9622 55.6518C24.3552 51.7203 24.1179 41.4425 32.967 33.1713C41.8183 24.8977 52.3735 22.1387 49.1786 30.7182Z" fill="url(#paint2_linear_10_250)"/>
<path d="M61.7072 12.788C59.471 15.1068 60.0529 19.3297 60.0529 19.3297C60.0529 19.3297 64.2605 19.7902 66.4954 17.4693C68.7315 15.1505 68.1509 10.9297 68.1509 10.9297C68.1509 10.9297 63.9433 10.4692 61.7072 12.788Z" fill="url(#paint3_linear_10_250)"/>
<path d="M46.8372 53.4003V66.6237L34.9675 80.8512H84.8254C99.8956 80.8512 112.12 68.557 112.12 53.4003C112.12 38.2438 99.8956 25.9497 84.8254 25.9497H74.1315C59.0521 25.9497 46.8372 38.2438 46.8372 53.4003Z" fill="#F79624"/>
<path d="M110.823 29.5434L113.489 26.8595C113.586 26.7617 113.586 26.6033 113.489 26.5055C113.392 26.4078 113.235 26.4078 113.138 26.5056L110.472 29.1895C110.374 29.2873 110.374 29.4458 110.472 29.5435C110.569 29.6412 110.726 29.6412 110.823 29.5434Z" fill="#E1E4E5"/>
<path d="M111.084 27.6219L111.853 26.8479C111.95 26.7501 111.95 26.5916 111.853 26.4939C111.756 26.3962 111.598 26.3962 111.501 26.4939L110.732 27.268C110.635 27.3657 110.635 27.5242 110.732 27.622C110.829 27.7197 110.987 27.7197 111.084 27.6219Z" fill="#E1E4E5"/>
<path fill-rule="evenodd" clip-rule="evenodd" d="M88.4516 37.8847C95.3042 37.8847 99.8993 44.3142 99.8993 50.3012C99.8993 62.4543 80.8219 72.4047 80.4745 72.4047C80.127 72.4047 61.0496 62.4543 61.0496 50.3012C61.0496 44.3142 65.6447 37.8847 72.4974 37.8847C76.4146 37.8847 78.9873 39.8373 80.4745 41.5762C81.9615 39.8373 84.5343 37.8847 88.4516 37.8847Z" fill="white"/>
<path fill-rule="evenodd" clip-rule="evenodd" d="M30.1099 47.1223C29.3054 47.1223 28.7662 47.8747 28.7662 48.5753C28.7662 49.9975 31.0054 51.1618 31.0461 51.1618C31.0868 51.1618 33.326 49.9975 33.326 48.5753C33.326 47.8747 32.7868 47.1223 31.9823 47.1223C31.5226 47.1223 31.2206 47.3508 31.0461 47.5543C30.8716 47.3508 30.5696 47.1223 30.1099 47.1223ZM102.318 17.7437C100.87 17.7437 99.8994 19.009 99.8994 20.1873C99.8994 22.5792 103.93 24.5375 104.003 24.5375C104.077 24.5375 108.107 22.5792 108.107 20.1873C108.107 19.009 107.136 17.7437 105.689 17.7437C104.861 17.7437 104.317 18.1278 104.003 18.4702C103.689 18.1278 103.146 17.7437 102.318 17.7437Z" fill="#E1E4E5"/>
<path d="M108.827 72.9193L104.578 77.196C104.424 77.3518 104.424 77.6043 104.578 77.76C104.733 77.9157 104.984 77.9157 105.139 77.7599L109.387 73.4832C109.542 73.3275 109.542 73.075 109.387 72.9192C109.232 72.7635 108.981 72.7635 108.827 72.9193Z" fill="#E1E4E5"/>
<path d="M108.411 75.9813L107.186 77.2147C107.031 77.3704 107.031 77.6229 107.186 77.7786C107.34 77.9344 107.591 77.9343 107.746 77.7786L108.971 76.5453C109.126 76.3895 109.126 76.137 108.971 75.9813C108.816 75.8256 108.566 75.8256 108.411 75.9813Z" fill="#E1E4E5"/>
<path d="M40.8177 37.6435L43.6528 34.7894C43.756 34.6854 43.756 34.5169 43.6528 34.413C43.5495 34.309 43.3821 34.309 43.2789 34.413L40.4438 37.2671C40.3405 37.371 40.3405 37.5396 40.4438 37.6435C40.547 37.7474 40.7144 37.7474 40.8177 37.6435Z" fill="#E1E4E5"/>
<path d="M41.0952 35.6001L41.9128 34.777C42.016 34.6731 42.016 34.5046 41.9128 34.4006C41.8095 34.2967 41.6421 34.2967 41.5389 34.4006L40.7213 35.2237C40.618 35.3276 40.618 35.4962 40.7213 35.6001C40.8245 35.7041 40.9919 35.7041 41.0952 35.6001Z" fill="#E1E4E5"/>
<path d="M31.077 78.1006L35.7406 73.4058C35.9104 73.2348 35.9104 72.9576 35.7406 72.7866C35.5708 72.6157 35.2955 72.6157 35.1256 72.7867L30.4621 77.4815C30.2922 77.6525 30.2922 77.9297 30.462 78.1006C30.6318 78.2716 30.9072 78.2716 31.077 78.1006Z" fill="#E1E4E5"/>
<path d="M31.5334 74.7393L32.8783 73.3854C33.0481 73.2144 33.0481 72.9372 32.8783 72.7663C32.7085 72.5953 32.4332 72.5954 32.2633 72.7664L30.9185 74.1202C30.7486 74.2912 30.7486 74.5684 30.9184 74.7394C31.0882 74.9103 31.3636 74.9103 31.5334 74.7393Z" fill="#E1E4E5"/>
<path d="M77.9313 17.8549L82.1795 13.5782C82.3342 13.4224 82.3342 13.1699 82.1795 13.0142C82.0248 12.8585 81.774 12.8585 81.6193 13.0143L77.3711 17.291C77.2164 17.4467 77.2164 17.6992 77.3711 17.855C77.5257 18.0107 77.7766 18.0106 77.9313 17.8549Z" fill="#E1E4E5"/>
<path d="M78.3471 14.7928L79.5722 13.5595C79.7269 13.4038 79.7269 13.1513 79.5722 12.9955C79.4175 12.8398 79.1667 12.8398 79.012 12.9956L77.7869 14.2289C77.6322 14.3847 77.6322 14.6372 77.7869 14.7929C77.9415 14.9486 78.1924 14.9486 78.3471 14.7928Z" fill="#E1E4E5"/>
<path d="M117.644 62.7289C116.693 62.1764 115.478 62.5043 114.929 63.4612C114.38 64.4181 114.706 65.6417 115.657 66.1941C116.607 66.7466 117.823 66.4187 118.371 65.4618C118.92 64.5049 118.594 63.2813 117.644 62.7289Z" fill="#E1E4E5"/>
<path d="M119.368 47.1573C119.368 48.0843 118.583 48.854 117.591 48.854C116.6 48.854 115.815 48.0843 115.815 47.1573C115.815 46.2305 116.6 45.4608 117.591 45.4608C118.583 45.4608 119.368 46.2305 119.368 47.1573Z" stroke="#E1E4E5" strokeWidth="2.777"/>
<path d="M37.1288 60.926L35.8514 63.1533L33.639 61.8673L34.9163 59.64L37.1288 60.926Z" stroke="#E1E4E5" strokeWidth="5.604" stroke-linecap="round" stroke-linejoin="round"/>
<path d="M36.4343 48.0932C30.2692 35.4538 42.0594 21.332 53.5984 21.6725" stroke="#E1E4E5" strokeWidth="2.014" stroke-miterlimit="10" stroke-dasharray="8.37 8.37"/>
<path d="M54.9745 22.7608C55.3556 23.1703 55.9938 23.1933 56.4006 22.8097C56.4975 22.7186 56.5756 22.6093 56.6304 22.4878C56.6853 22.3664 56.7159 22.2353 56.7204 22.1019C56.7248 21.9686 56.7032 21.8357 56.6566 21.7108C56.61 21.5859 56.5395 21.4714 56.4489 21.374C56.0678 20.9645 55.4296 20.9417 55.023 21.3253C54.926 21.4163 54.8477 21.5256 54.7927 21.647C54.7377 21.7684 54.7071 21.8996 54.7026 22.033C54.6981 22.1663 54.7198 22.2993 54.7665 22.4242C54.8131 22.5491 54.8838 22.6635 54.9745 22.7608ZM116.309 38.2985C115.41 39.6167 116.042 41.628 116.042 41.628C116.042 41.628 118.132 41.5008 119.031 40.1818C119.931 38.8637 119.299 36.8532 119.299 36.8532C119.299 36.8532 117.209 36.9803 116.309 38.2985Z" fill="#E1E4E5"/>
<defs>
<linearGradient id="paint0_linear_10_250" x1="68.203" y1="-17.3562" x2="90.5369" y2="147.965" gradientUnits="userSpaceOnUse">
<stop stop-color="white"/>
<stop offset="1" stop-color="#EEEEEE"/>
</linearGradient>
<linearGradient id="paint1_linear_10_250" x1="103.389" y1="35.5297" x2="110.688" y2="120.689" gradientUnits="userSpaceOnUse">
<stop stop-color="white"/>
<stop offset="1" stop-color="#EEEEEE"/>
</linearGradient>
<linearGradient id="paint2_linear_10_250" x1="36.3565" y1="7.107" x2="40.6998" y2="95.3794" gradientUnits="userSpaceOnUse">
<stop stop-color="white"/>
<stop offset="1" stop-color="#EEEEEE"/>
</linearGradient>
<linearGradient id="paint3_linear_10_250" x1="54.0994" y1="22.0083" x2="79.3099" y2="5.18807" gradientUnits="userSpaceOnUse">
<stop stop-color="white"/>
<stop offset="1" stop-color="#EEEEEE"/>
</linearGradient>
</defs>
</svg>
