<svg width="192" height="128" viewBox="0 0 192 128" fill="none" xmlns="http://www.w3.org/2000/svg">
<path d="M127.293 42.957C123.858 31.7446 94.1662 17.2732 70.7087 35.2632C59.7991 43.6303 63.1853 49.6352 56.9039 61.4897C53.1597 68.5551 46.5274 75.2919 46.9705 83.4037C47.3515 90.4058 51.0153 96.7386 55.9716 99.9138C67.1183 107.055 84.7789 108.267 94.0118 87.1887C103.244 66.1101 136.15 71.8756 127.293 42.957Z" fill="url(#paint0_linear_31_165)"/>
<path d="M141.253 66.6716C137.184 62.4967 130.975 63.437 121.567 66.9583C114.493 69.6077 108.015 71.9269 101.812 77.8334C97.4704 81.9657 94.45 86.7917 92.4879 91.2188C90.3617 96.015 87.1248 101.706 90.5005 105.593C95.1393 110.933 113.834 111.468 128.375 98.505C144.347 84.2631 145.232 70.7512 141.253 66.6716Z" fill="url(#paint1_linear_31_165)"/>
<mask id="mask0_31_165" style="mask-type:alpha" maskUnits="userSpaceOnUse" x="54" y="27" width="84" height="75">
<path fill-rule="evenodd" clip-rule="evenodd" d="M125.792 37.8978C142.001 52.425 142.001 75.978 125.792 90.5052C109.583 105.033 83.3039 105.033 67.095 90.5052C50.8861 75.978 50.8861 52.425 67.095 37.8978C83.3039 23.3704 109.583 23.3704 125.792 37.8978Z" fill="white"/>
</mask>
<g mask="url(#mask0_31_165)">
<path fill-rule="evenodd" clip-rule="evenodd" d="M125.792 37.8978C142.001 52.425 142.001 75.978 125.792 90.5052C109.583 105.033 83.3039 105.033 67.095 90.5052C50.8861 75.978 50.8861 52.425 67.095 37.8978C83.3039 23.3704 109.583 23.3704 125.792 37.8978Z" fill="white"/>
<path d="M125.223 38.5331C141.053 52.7213 141.053 75.6817 125.223 89.8699L126.362 91.1407C142.949 76.2743 142.949 52.1286 126.362 37.2623L125.223 38.5331ZM125.223 89.8699C109.338 104.106 83.5492 104.106 67.6646 89.8699L66.5254 91.1407C83.0583 105.958 109.829 105.958 126.362 91.1407L125.223 89.8699ZM67.6646 89.8699C51.8342 75.6817 51.8342 52.7213 67.6646 38.5331L66.5254 37.2623C49.9383 52.1286 49.9383 76.2743 66.5254 91.1407L67.6646 89.8699ZM67.6646 38.5331C83.5492 24.2965 109.338 24.2965 125.223 38.5331L126.362 37.2623C109.829 22.4446 83.0583 22.4446 66.5254 37.2623L67.6646 38.5331Z" fill="#E1E4E5"/>
<path d="M55.6042 64.3211C55.6042 62.5873 56.2594 60.8518 57.5612 59.2301C64.4117 50.6961 79.6508 45.1315 96.5632 45.1315C113.476 45.1315 128.715 50.6961 135.565 59.2301C136.867 60.8518 137.522 62.5873 137.522 64.3211C137.522 66.0548 136.867 67.7903 135.565 69.4121C128.715 77.9463 113.476 83.5106 96.5632 83.5106C79.6508 83.5106 64.4117 77.9463 57.5612 69.4121C56.2594 67.7903 55.6042 66.0548 55.6042 64.3211Z" fill="white" stroke="#E1E4E5" strokeWidth="4"/>
</g>
<mask id="mask1_31_165" style="mask-type:alpha" maskUnits="userSpaceOnUse" x="76" y="44" width="41" height="40">
<path fill-rule="evenodd" clip-rule="evenodd" d="M110.482 50.4689C118.145 58.1301 118.145 70.567 110.482 78.2413C102.819 85.9023 90.3789 85.9023 82.7028 78.2413C75.0398 70.5801 75.0398 58.1431 82.7028 50.4689C90.3789 42.7949 102.812 42.7949 110.482 50.4689Z" fill="white"/>
</mask>
<g mask="url(#mask1_31_165)">
<path fill-rule="evenodd" clip-rule="evenodd" d="M110.482 50.4689C118.145 58.1301 118.145 70.567 110.482 78.2413C102.819 85.9023 90.3789 85.9023 82.7028 78.2413C75.0398 70.5801 75.0398 58.1431 82.7028 50.4689C90.3789 42.7949 102.812 42.7949 110.482 50.4689Z" fill="white"/>
<path d="M110.482 78.2413L111.085 78.8448L111.086 78.8441L110.482 78.2413ZM82.7027 78.2413L82.0994 78.8448L82.1001 78.8452L82.7027 78.2413ZM82.7027 50.4689L82.0994 49.8656L82.099 49.866L82.7027 50.4689ZM109.879 51.0724C117.208 58.4 117.209 70.2969 109.878 77.6382L111.086 78.8441C119.081 70.8371 119.082 57.86 111.085 49.8656L109.879 51.0724ZM109.879 77.6377C102.549 84.9653 90.6488 84.9662 83.3056 77.6373L82.1001 78.8452C90.1088 86.8384 103.089 86.8392 111.085 78.8448L109.879 77.6377ZM83.306 77.6377C75.9768 70.3102 75.9759 58.4132 83.3067 51.072L82.099 49.866C74.1035 57.8731 74.1028 70.8501 82.0994 78.8448L83.306 77.6377ZM83.306 51.0724C90.6492 43.7312 102.542 43.7316 109.878 51.0722L111.086 49.8658C103.083 41.8579 90.1086 41.8583 82.0994 49.8656L83.306 51.0724Z" fill="#E1E4E5"/>
<path fill-rule="evenodd" clip-rule="evenodd" d="M107.854 64.4768C107.854 67.4301 106.681 70.2624 104.593 72.3507C103.035 73.9078 101.051 74.9681 98.8912 75.3976C96.7312 75.8272 94.4924 75.6066 92.4578 74.7638C90.4232 73.921 88.6842 72.4939 87.4606 70.6628C86.2371 68.8318 85.5839 66.679 85.5837 64.4768C85.5837 61.5236 86.7569 58.6914 88.8451 56.6031C90.9333 54.5149 93.7656 53.3418 96.7188 53.3418C99.672 53.3418 102.504 54.5149 104.592 56.6031C106.681 58.6914 107.854 61.5236 107.854 64.4768Z" fill="#F79624"/>
<path d="M94.4083 64.2299C96.4747 64.2299 98.1499 62.5548 98.1499 60.4883C98.1499 58.4218 96.4747 56.7466 94.4083 56.7466C92.3418 56.7466 90.6666 58.4218 90.6666 60.4883C90.6666 62.5548 92.3418 64.2299 94.4083 64.2299Z" fill="white"/>
</g>
<defs>
<linearGradient id="paint0_linear_31_165" x1="77.4362" y1="-13.5187" x2="103.756" y2="182.614" gradientUnits="userSpaceOnUse">
<stop stop-color="white"/>
<stop offset="1" stop-color="#EEEEEE"/>
</linearGradient>
<linearGradient id="paint1_linear_31_165" x1="114.179" y1="39.8034" x2="119.186" y2="156.62" gradientUnits="userSpaceOnUse">
<stop stop-color="white"/>
<stop offset="1" stop-color="#EEEEEE"/>
</linearGradient>
</defs>
</svg>
