<svg width="158" height="106" viewBox="0 0 158 106" fill="none" xmlns="http://www.w3.org/2000/svg">
<path d="M41.0277 60.1527C39.3016 46.8901 48.3965 31.1184 67.7783 33.5105C84.2182 35.539 87.782 32.9234 94.8594 29.1963C99.5332 26.736 106.845 22.3828 112.776 34.8311C120.54 51.1236 102.333 76.6689 86.0712 84.5035C70.521 91.9965 44.1585 84.2207 41.0277 60.1527Z" fill="#F79624"/>
<path d="M42.9136 36.5597L47.9504 31.4909C48.1338 31.3064 48.1338 31.0072 47.9504 30.8226C47.767 30.638 47.4697 30.638 47.2863 30.8226L42.2494 35.8913C42.066 36.0759 42.066 36.3751 42.2494 36.5597C42.4328 36.7442 42.7302 36.7442 42.9136 36.5597Z" fill="#E1E4E5"/>
<path d="M41.312 82.8467L44.3046 79.8352C44.4136 79.7255 44.4136 79.5476 44.3046 79.438C44.1957 79.3283 44.019 79.3283 43.9099 79.438L40.9174 82.4495C40.8084 82.5592 40.8084 82.7371 40.9173 82.8467C41.0263 82.9564 41.203 82.9564 41.312 82.8467Z" fill="#E1E4E5"/>
<path d="M115.572 68.8328L112.58 71.8443C112.471 71.954 112.471 72.1318 112.58 72.2415C112.688 72.3511 112.865 72.3511 112.974 72.2414L115.967 69.2299C116.076 69.1202 116.076 68.9424 115.967 68.8327C115.858 68.7231 115.681 68.7231 115.572 68.8328Z" fill="#E1E4E5"/>
<path d="M43.4064 32.9305L44.8591 31.4687C45.0425 31.2841 45.0425 30.9849 44.8591 30.8003C44.6757 30.6158 44.3784 30.6158 44.195 30.8003L42.7423 32.2622C42.5589 32.4467 42.5589 32.7459 42.7423 32.9305C42.9257 33.1151 43.2231 33.1151 43.4064 32.9305Z" fill="#E1E4E5"/>
<path d="M41.6049 80.6904L42.4679 79.8219C42.5769 79.7122 42.5769 79.5344 42.468 79.4248C42.359 79.3151 42.1823 79.3151 42.0733 79.4248L41.2103 80.2933C41.1013 80.403 41.1012 80.5808 41.2102 80.6905C41.3192 80.8001 41.4959 80.8001 41.6049 80.6904Z" fill="#E1E4E5"/>
<path d="M115.279 70.9891L114.416 71.8575C114.307 71.9672 114.307 72.1451 114.416 72.2547C114.525 72.3644 114.702 72.3643 114.811 72.2547L115.674 71.3862C115.783 71.2765 115.783 71.0987 115.674 70.989C115.565 70.8794 115.388 70.8794 115.279 70.9891Z" fill="#E1E4E5"/>
<path d="M85.6909 88.4246C84.8879 88.6181 83.8093 89.035 83.1975 89.8648C82.5861 90.6945 83.3258 90.9395 84.3028 90.7801C85.2798 90.6208 86.2492 90.0662 86.6423 89.2854C87.0352 88.5047 86.3501 88.266 85.6909 88.4246ZM89.6469 86.8795C89.2589 86.973 88.7381 87.1744 88.4424 87.5751C88.1471 87.9759 88.5044 88.0941 88.9763 88.0173C89.4482 87.9402 89.9166 87.6724 90.1063 87.2952C90.2961 86.918 89.9652 86.8028 89.6469 86.8795ZM104.088 81.5036C105.096 80.8078 105.195 79.1882 105.195 79.1882C105.195 79.1882 103.659 78.6974 102.651 79.394C101.643 80.0895 101.544 81.7085 101.544 81.7085C101.544 81.7085 103.08 82.1993 104.088 81.5036Z" fill="#E1E4E5"/>
<path d="M101.361 22.1408C102.103 22.1408 102.705 21.4918 102.705 20.6914C102.705 19.8909 102.103 19.242 101.361 19.242C100.618 19.242 100.017 19.8909 100.017 20.6914C100.017 21.4918 100.618 22.1408 101.361 22.1408Z" fill="#E1E4E5"/>
<path d="M120.181 59.6333C120.605 59.6333 120.949 59.1141 120.949 58.4737C120.949 57.8332 120.605 57.314 120.181 57.314C119.757 57.314 119.413 57.8332 119.413 58.4737C119.413 59.1141 119.757 59.6333 120.181 59.6333Z" fill="#E1E4E5"/>
<path d="M63.3361 59.163L71.7843 67.7501L90.2224 49.004" stroke="white" strokeWidth="13" stroke-linecap="round" stroke-linejoin="round"/>
<path d="M85.2639 29.4809C79.7718 30.9442 73.804 26.3822 73.804 26.3822C73.804 26.3822 76.7445 19.4498 82.2385 17.9905C87.7306 16.5272 93.6967 21.0853 93.6967 21.0853C93.6967 21.0853 90.7559 28.0176 85.2639 29.4809Z" fill="url(#paint0_linear_10_231)"/>
<path d="M123.441 43.4876C121.79 45.179 118.701 44.8224 118.701 44.8224C118.701 44.8224 118.293 41.7234 119.946 40.0328C121.597 38.3414 124.684 38.6971 124.684 38.6971C124.684 38.6971 125.092 41.7961 123.441 43.4876Z" fill="url(#paint1_linear_10_231)"/>
<path d="M34.8176 56.1544C36.3555 56.1544 37.6023 57.4955 37.6023 59.1499C37.6023 60.8043 36.3555 62.1455 34.8176 62.1455C33.2797 62.1455 32.033 60.8043 32.033 59.1499C32.033 57.4955 33.2797 56.1544 34.8176 56.1544Z" fill="#E1E4E5"/>
<path d="M34.2414 42.6263C34.8248 42.6263 35.2977 42.1936 35.2977 41.6599C35.2977 41.1262 34.8248 40.6936 34.2414 40.6936C33.658 40.6936 33.1851 41.1262 33.1851 41.6599C33.1851 42.1936 33.658 42.6263 34.2414 42.6263Z" fill="#E1E4E5"/>
<path d="M61.5117 29.0981C62.6253 29.0981 63.5281 28.1896 63.5281 27.0689C63.5281 25.9482 62.6253 25.0397 61.5117 25.0397C60.398 25.0397 59.4952 25.9482 59.4952 27.0689C59.4952 28.1896 60.398 29.0981 61.5117 29.0981Z" fill="#E1E4E5"/>
<path d="M118.186 24.2666H118.145C117.905 27.7132 115.38 27.7662 115.38 27.7662C115.38 27.7662 118.165 27.8213 118.165 31.8037C118.165 27.8213 120.949 27.7662 120.949 27.7662C120.949 27.7662 118.425 27.7132 118.186 24.2666Z" fill="#E1E4E5"/>
<defs>
<linearGradient id="paint0_linear_10_231" x1="64.5383" y1="33.3059" x2="112.439" y2="9.27227" gradientUnits="userSpaceOnUse">
<stop stop-color="white"/>
<stop offset="1" stop-color="#EEEEEE"/>
</linearGradient>
<linearGradient id="paint1_linear_10_231" x1="116.852" y1="49.2653" x2="128.898" y2="30.5003" gradientUnits="userSpaceOnUse">
<stop stop-color="white"/>
<stop offset="1" stop-color="#EEEEEE"/>
</linearGradient>
</defs>
</svg>
