<svg width="50" height="61" viewBox="0 0 50 61" fill="none" xmlns="http://www.w3.org/2000/svg">
<path d="M25 0.66687L47.825 5.64687C49.0944 5.92505 50 7.0296 50 8.30869V35.546C50 41.0169 47.2139 46.1278 42.5778 49.1605L25 60.6669L7.42222 49.1605C2.78333 46.1251 0 41.0169 0 35.5487V8.30869C0 7.0296 0.905556 5.92505 2.175 5.64687L25 0.66687ZM25 6.25505L5.55556 10.496V35.546C5.55556 39.1923 7.41111 42.5987 10.5028 44.6223L25 54.1132L39.4972 44.6223C42.5889 42.5987 44.4444 39.1951 44.4444 35.5487V10.496L25 6.25778V6.25505ZM37.3667 20.3632L41.2972 24.2196L23.6194 41.576L11.8333 30.0041L15.7611 26.1478L23.6167 33.8605L37.3667 20.3605V20.3632Z" fill="white"/>
</svg>
