<svg width="51" height="51" viewBox="0 0 51 51" fill="none" xmlns="http://www.w3.org/2000/svg">
<path d="M43.7074 16.577H46.121C47.3266 16.577 48.4827 17.0559 49.3352 17.9084C50.1876 18.7609 50.6665 19.9171 50.6665 21.1227V30.214C50.6665 31.4196 50.1876 32.5758 49.3352 33.4283C48.4827 34.2808 47.3266 34.7597 46.121 34.7597H43.7074C43.1533 39.1538 41.0148 43.1946 37.6932 46.1239C34.3716 49.0531 30.0952 50.6695 25.6665 50.6696V46.1239C29.2831 46.1239 32.7516 44.6871 35.3089 42.1297C37.8662 39.5722 39.3029 36.1036 39.3029 32.4868V18.8498C39.3029 15.2331 37.8662 11.7644 35.3089 9.20698C32.7516 6.64954 29.2831 5.21279 25.6665 5.21279C22.0499 5.21279 18.5815 6.64954 16.0241 9.20698C13.4668 11.7644 12.0301 15.2331 12.0301 18.8498V34.7597H5.21196C4.00643 34.7597 2.85027 34.2808 1.99784 33.4283C1.1454 32.5758 0.666504 31.4196 0.666504 30.214V21.1227C0.666504 19.9171 1.1454 18.7609 1.99784 17.9084C2.85027 17.0559 4.00643 16.577 5.21196 16.577H7.62559C8.18021 12.1833 10.319 8.14309 13.6405 5.21432C16.9621 2.28555 21.2382 0.669556 25.6665 0.669556C30.0948 0.669556 34.3709 2.28555 37.6925 5.21432C41.014 8.14309 43.1528 12.1833 43.7074 16.577ZM5.21196 21.1227V30.214H7.48469V21.1227H5.21196ZM43.8483 21.1227V30.214H46.121V21.1227H43.8483ZM16.0301 34.271L18.4392 30.4163C20.6053 31.7733 23.1105 32.491 25.6665 32.4868C28.2225 32.491 30.7277 31.7733 32.8938 30.4163L35.3029 34.271C32.4148 36.0805 29.0746 37.0378 25.6665 37.0325C22.2585 37.0378 18.9182 36.0805 16.0301 34.271Z" fill="white"/>
</svg>
