<svg width="51" height="50" viewBox="0 0 51 50" fill="none" xmlns="http://www.w3.org/2000/svg">
<path d="M11.4695 41.0256L0.332031 50V2.5641C0.332031 1.88406 0.595423 1.23187 1.06426 0.751008C1.53311 0.270146 2.16899 0 2.83203 0H47.832C48.4951 0 49.131 0.270146 49.5998 0.751008C50.0686 1.23187 50.332 1.88406 50.332 2.5641V38.4615C50.332 39.1416 50.0686 39.7938 49.5998 40.2746C49.131 40.7555 48.4951 41.0256 47.832 41.0256H11.4695ZM9.73953 35.8974H45.332V5.12821H5.33203V39.4487L9.73953 35.8974ZM23.5645 23.3872L34.172 12.5103L37.707 16.1359L23.5645 30.641L13.8395 20.6667L17.377 17.041L23.5645 23.3872Z" fill="white"/>
</svg>
