<svg width="50" height="51" viewBox="0 0 50 51" fill="none" xmlns="http://www.w3.org/2000/svg">
<path d="M22.2222 12.8331H27.7777V37.8331H22.2222V12.8331ZM33.3333 22.8331H38.8888V37.8331H33.3333V22.8331ZM11.1111 27.8331H16.6666V37.8331H11.1111V27.8331ZM33.3333 5.33313H5.55555V45.3331H44.4444V15.3331H33.3333V5.33313ZM0 2.81313C0 1.44313 1.24167 0.33313 2.775 0.33313H36.1111L49.9999 12.8331V47.8156C50.0025 48.1439 49.9332 48.4695 49.7959 48.7737C49.6587 49.0779 49.4562 49.3548 49.2001 49.5885C48.944 49.8223 48.6392 50.0084 48.3031 50.1361C47.9671 50.2639 47.6064 50.3308 47.2416 50.3331H2.75833C2.02883 50.3286 1.3306 50.0659 0.814492 49.6018C0.298383 49.1378 0.00581846 48.5097 0 47.8531V2.81313Z" fill="white"/>
</svg>
