<svg width="57" height="51" viewBox="0 0 57 51" fill="none" xmlns="http://www.w3.org/2000/svg">
<path d="M0.583496 3.14713C0.588605 2.41397 0.881926 1.71226 1.40009 1.19357C1.91826 0.674875 2.61968 0.380848 3.35283 0.375H53.6475C55.1773 0.375 56.4168 1.61729 56.4168 3.14713V47.8529C56.4117 48.586 56.1184 49.2877 55.6002 49.8064C55.0821 50.3251 54.3806 50.6192 53.6475 50.625H3.35283C2.6181 50.6243 1.91372 50.3319 1.39445 49.8121C0.875175 49.2923 0.583496 48.5876 0.583496 47.8529V3.14713ZM6.16683 5.95833V11.5417H11.7502V5.95833H6.16683ZM45.2502 5.95833V11.5417H50.8335V5.95833H45.2502ZM6.16683 17.125V22.7083H11.7502V17.125H6.16683ZM45.2502 17.125V22.7083H50.8335V17.125H45.2502ZM6.16683 28.2917V33.875H11.7502V28.2917H6.16683ZM45.2502 28.2917V33.875H50.8335V28.2917H45.2502ZM6.16683 39.4583V45.0417H11.7502V39.4583H6.16683ZM45.2502 39.4583V45.0417H50.8335V39.4583H45.2502Z" fill="white"/>
</svg>
