<svg width="42" height="38" viewBox="0 0 42 38" fill="none" xmlns="http://www.w3.org/2000/svg">
<path d="M2.24984 0.25H39.7498C40.3024 0.25 40.8323 0.469493 41.223 0.860194C41.6137 1.25089 41.8332 1.7808 41.8332 2.33333V35.6667C41.8332 36.2192 41.6137 36.7491 41.223 37.1398C40.8323 37.5305 40.3024 37.75 39.7498 37.75H2.24984C1.6973 37.75 1.1674 37.5305 0.776698 37.1398C0.385997 36.7491 0.166504 36.2192 0.166504 35.6667V2.33333C0.166504 1.7808 0.385997 1.25089 0.776698 0.860194C1.1674 0.469493 1.6973 0.25 2.24984 0.25ZM21.1248 18.3396L7.7665 6.99583L5.06859 10.1708L21.1519 23.8271L36.9457 10.1604L34.2207 7.00833L21.1269 18.3396H21.1248Z" fill="white"/>
</svg>
