<svg width="42" height="42" viewBox="0 0 42 42" fill="none" xmlns="http://www.w3.org/2000/svg">
<path d="M20.9998 0.166687C26.6603 0.166687 27.3665 0.18752 29.5873 0.291687C31.8061 0.395854 33.3165 0.743771 34.6457 1.26044C36.0207 1.7896 37.179 2.50627 38.3373 3.66252C39.3967 4.70397 40.2164 5.96375 40.7394 7.35419C41.254 8.68127 41.604 10.1938 41.7082 12.4125C41.8061 14.6334 41.8332 15.3396 41.8332 21C41.8332 26.6604 41.8123 27.3667 41.7082 29.5875C41.604 31.8063 41.254 33.3167 40.7394 34.6459C40.2179 36.0371 39.398 37.2971 38.3373 38.3375C37.2956 39.3965 36.0359 40.2162 34.6457 40.7396C33.3186 41.2542 31.8061 41.6042 29.5873 41.7084C27.3665 41.8063 26.6603 41.8334 20.9998 41.8334C15.3394 41.8334 14.6332 41.8125 12.4123 41.7084C10.1936 41.6042 8.68317 41.2542 7.354 40.7396C5.96302 40.2177 4.70302 39.3978 3.66234 38.3375C2.60277 37.2962 1.78303 36.0364 1.26025 34.6459C0.743587 33.3188 0.39567 31.8063 0.291504 29.5875C0.193587 27.3667 0.166504 26.6604 0.166504 21C0.166504 15.3396 0.187337 14.6334 0.291504 12.4125C0.39567 10.1917 0.743587 8.68335 1.26025 7.35419C1.78158 5.96289 2.60151 4.70277 3.66234 3.66252C4.70332 2.60259 5.96323 1.78279 7.354 1.26044C8.68317 0.743771 10.1915 0.395854 12.4123 0.291687C14.6332 0.19377 15.3394 0.166687 20.9998 0.166687ZM20.9998 10.5834C18.2372 10.5834 15.5876 11.6808 13.6341 13.6343C11.6806 15.5878 10.5832 18.2374 10.5832 21C10.5832 23.7627 11.6806 26.4122 13.6341 28.3657C15.5876 30.3192 18.2372 31.4167 20.9998 31.4167C23.7625 31.4167 26.412 30.3192 28.3655 28.3657C30.319 26.4122 31.4165 23.7627 31.4165 21C31.4165 18.2374 30.319 15.5878 28.3655 13.6343C26.412 11.6808 23.7625 10.5834 20.9998 10.5834ZM34.5415 10.0625C34.5415 9.37185 34.2671 8.70947 33.7788 8.2211C33.2904 7.73272 32.628 7.45835 31.9373 7.45835C31.2467 7.45835 30.5843 7.73272 30.0959 8.2211C29.6075 8.70947 29.3332 9.37185 29.3332 10.0625C29.3332 10.7532 29.6075 11.4156 30.0959 11.9039C30.5843 12.3923 31.2467 12.6667 31.9373 12.6667C32.628 12.6667 33.2904 12.3923 33.7788 11.9039C34.2671 11.4156 34.5415 10.7532 34.5415 10.0625ZM20.9998 14.75C22.6574 14.75 24.2472 15.4085 25.4193 16.5806C26.5914 17.7527 27.2498 19.3424 27.2498 21C27.2498 22.6576 26.5914 24.2473 25.4193 25.4194C24.2472 26.5915 22.6574 27.25 20.9998 27.25C19.3422 27.25 17.7525 26.5915 16.5804 25.4194C15.4083 24.2473 14.7498 22.6576 14.7498 21C14.7498 19.3424 15.4083 17.7527 16.5804 16.5806C17.7525 15.4085 19.3422 14.75 20.9998 14.75Z" fill="white"/>
</svg>
