<svg width="48" height="54" viewBox="0 0 48 54" fill="none" xmlns="http://www.w3.org/2000/svg">
<path d="M48 19V50.9813C48.0025 51.3315 47.9359 51.6788 47.8042 52.0032C47.6724 52.3277 47.4781 52.6231 47.2322 52.8724C46.9863 53.1218 46.6937 53.3203 46.3711 53.4565C46.0485 53.5928 45.7022 53.6642 45.352 53.6666H2.648C1.94617 53.6666 1.27304 53.388 0.776523 52.892C0.280004 52.396 0.000706779 51.7231 0 51.0213V2.97865C0 1.54665 1.192 0.333313 2.66133 0.333313H29.3333V16.3333C29.3333 17.0406 29.6143 17.7188 30.1144 18.2189C30.6145 18.719 31.2928 19 32 19H48ZM48 13.6666H34.6667V0.341313L48 13.6666ZM13.3333 13.6666V19H21.3333V13.6666H13.3333ZM13.3333 24.3333V29.6666H34.6667V24.3333H13.3333ZM13.3333 35V40.3333H34.6667V35H13.3333Z" fill="white"/>
</svg>
