<svg width="40" height="46" viewBox="0 0 40 46" fill="none" xmlns="http://www.w3.org/2000/svg">
<path d="M21.0834 41.75H31.5001V45.9167H6.50011V41.75H16.9168V39.5625C13.6136 39.2309 10.4375 38.1148 7.65295 36.3072C4.86841 34.4996 2.55604 32.0529 0.908447 29.1709L4.5272 27.1042C5.79966 29.3276 7.56756 31.2278 9.69356 32.6571C11.8196 34.0865 14.2464 35.0065 16.7857 35.3457C19.3249 35.6849 21.9082 35.4342 24.3348 34.613C26.7615 33.7918 28.9662 32.4223 30.7776 30.6109C32.5891 28.7994 33.9586 26.5947 34.7798 24.1681C35.6009 21.7415 35.8516 19.1582 35.5124 16.6189C35.1732 14.0797 34.2532 11.6528 32.8239 9.52681C31.3946 7.40081 29.4944 5.63291 27.271 4.36045L29.3376 0.741699C32.5273 2.56367 35.1782 5.19692 37.0216 8.37427C38.8649 11.5516 39.835 15.16 39.8335 18.8334C39.8335 29.6354 31.6105 38.5188 21.0834 39.5625V41.75ZM19.0001 33.4167C17.085 33.4167 15.1886 33.0395 13.4193 32.3066C11.65 31.5737 10.0423 30.4995 8.68814 29.1453C7.33395 27.7911 6.25975 26.1835 5.52687 24.4142C4.79399 22.6448 4.41678 20.7485 4.41678 18.8334C4.41678 16.9183 4.79399 15.0219 5.52687 13.2526C6.25975 11.4832 7.33395 9.87558 8.68814 8.52139C10.0423 7.1672 11.65 6.093 13.4193 5.36012C15.1886 4.62724 17.085 4.25003 19.0001 4.25003C22.8679 4.25003 26.5772 5.78649 29.3121 8.52139C32.047 11.2563 33.5835 14.9656 33.5835 18.8334C33.5835 22.7011 32.047 26.4104 29.3121 29.1453C26.5772 31.8802 22.8679 33.4167 19.0001 33.4167Z" fill="#1976D1"/>
</svg>
