<svg width="42" height="41" viewBox="0 0 42 41" fill="none" xmlns="http://www.w3.org/2000/svg">
<path d="M26.1042 33.5833L21.0001 40.875L15.8959 33.5833H2.25008C1.69755 33.5833 1.16764 33.3638 0.776942 32.9731C0.386241 32.5824 0.166748 32.0525 0.166748 31.5V2.33333C0.166748 1.7808 0.386241 1.25089 0.776942 0.860194C1.16764 0.469493 1.69755 0.25 2.25008 0.25H39.7501C40.3026 0.25 40.8325 0.469493 41.2232 0.860194C41.6139 1.25089 41.8334 1.7808 41.8334 2.33333V31.5C41.8334 32.0525 41.6139 32.5824 41.2232 32.9731C40.8325 33.3638 40.3026 33.5833 39.7501 33.5833H26.1042Z" fill="#1976D1"/>
</svg>
