<svg width="46" height="34" viewBox="0 0 46 34" fill="none" xmlns="http://www.w3.org/2000/svg">
<path d="M33.4166 11.1666L44.277 3.56242C44.4332 3.45295 44.6164 3.38845 44.8067 3.37596C44.997 3.36347 45.1871 3.40346 45.3562 3.49157C45.5253 3.57969 45.667 3.71254 45.7658 3.87565C45.8647 4.03876 45.9168 4.22587 45.9166 4.41658V29.5833C45.9168 29.774 45.8647 29.9611 45.7658 30.1242C45.667 30.2873 45.5253 30.4201 45.3562 30.5083C45.1871 30.5964 44.997 30.6364 44.8067 30.6239C44.6164 30.6114 44.4332 30.5469 44.277 30.4374L33.4166 22.8332V31.5832C33.4166 32.1358 33.1971 32.6657 32.8064 33.0564C32.4157 33.4471 31.8858 33.6666 31.3333 33.6666H2.16659C1.61405 33.6666 1.08415 33.4471 0.693446 33.0564C0.302745 32.6657 0.083252 32.1358 0.083252 31.5832V2.41658C0.083252 1.86405 0.302745 1.33415 0.693446 0.943446C1.08415 0.552746 1.61405 0.333252 2.16659 0.333252H31.3333C31.8858 0.333252 32.4157 0.552746 32.8064 0.943446C33.1971 1.33415 33.4166 1.86405 33.4166 2.41658V11.1666ZM8.41658 8.66658V12.8333H12.5833V8.66658H8.41658Z" fill="#1976D1"/>
</svg>
