<svg width="13" height="16" viewBox="0 0 13 16" fill="none" xmlns="http://www.w3.org/2000/svg">
<path d="M13 7.33326L9 7.33326L9 8.6666L13 8.6666L13 14.7693C13 14.8272 12.9849 14.8841 12.9562 14.9344C12.9275 14.9847 12.8861 15.0267 12.8363 15.0562C12.7864 15.0856 12.7297 15.1016 12.6718 15.1025C12.6139 15.1034 12.5568 15.0892 12.506 15.0613L0.198 8.29193C0.145738 8.26316 0.102156 8.22088 0.0718025 8.16952C0.0414499 8.11816 0.0254367 8.05959 0.0254367 7.99993C0.0254367 7.94027 0.0414499 7.8817 0.0718025 7.83034C0.102156 7.77898 0.145738 7.73671 0.198 7.70793L12.506 0.938597C12.5567 0.910678 12.6139 0.896465 12.6718 0.89736C12.7297 0.898255 12.7864 0.914227 12.8363 0.943701C12.8861 0.973175 12.9275 1.01513 12.9562 1.06544C12.9849 1.11575 13 1.17267 13 1.2306L13 7.33326Z" fill="#03AB00"/>
</svg>
