<svg width="22" height="22" viewBox="0 0 22 22" fill="none" xmlns="http://www.w3.org/2000/svg">
<path d="M7.68588 2.99988L10.2929 0.392884C10.4804 0.205413 10.7347 0.100098 10.9999 0.100098C11.265 0.100098 11.5194 0.205413 11.7069 0.392884L14.3139 2.99988H17.9999C18.2651 2.99988 18.5195 3.10524 18.707 3.29278C18.8945 3.48031 18.9999 3.73467 18.9999 3.99988V7.68588L21.6069 10.2929C21.7944 10.4804 21.8997 10.7347 21.8997 10.9999C21.8997 11.265 21.7944 11.5194 21.6069 11.7069L18.9999 14.3139V17.9999C18.9999 18.2651 18.8945 18.5195 18.707 18.707C18.5195 18.8945 18.2651 18.9999 17.9999 18.9999H14.3139L11.7069 21.6069C11.5194 21.7944 11.265 21.8997 10.9999 21.8997C10.7347 21.8997 10.4804 21.7944 10.2929 21.6069L7.68588 18.9999H3.99988C3.73467 18.9999 3.48031 18.8945 3.29278 18.707C3.10524 18.5195 2.99988 18.2651 2.99988 17.9999V14.3139L0.392884 11.7069C0.205413 11.5194 0.100098 11.265 0.100098 10.9999C0.100098 10.7347 0.205413 10.4804 0.392884 10.2929L2.99988 7.68588V3.99988C2.99988 3.73467 3.10524 3.48031 3.29278 3.29278C3.48031 3.10524 3.73467 2.99988 3.99988 2.99988H7.68588ZM10.9999 13.9999C11.7955 13.9999 12.5586 13.6838 13.1212 13.1212C13.6838 12.5586 13.9999 11.7955 13.9999 10.9999C13.9999 10.2042 13.6838 9.44117 13.1212 8.87856C12.5586 8.31595 11.7955 7.99988 10.9999 7.99988C10.2042 7.99988 9.44117 8.31595 8.87856 8.87856C8.31595 9.44117 7.99988 10.2042 7.99988 10.9999C7.99988 11.7955 8.31595 12.5586 8.87856 13.1212C9.44117 13.6838 10.2042 13.9999 10.9999 13.9999Z" fill="black"/>
</svg>
