<svg width="34" height="41" viewBox="0 0 34 41" fill="none" xmlns="http://www.w3.org/2000/svg">
<path d="M26.3207 25.9887C28.0447 24.1671 29.1972 21.8802 29.6357 19.4107C30.0742 16.9412 29.7794 14.3973 28.7878 12.0935C27.7962 9.78969 26.1512 7.82696 24.0563 6.44788C21.9613 5.06881 19.5081 4.33385 17 4.33385C14.4919 4.33385 12.0387 5.06881 9.94372 6.44788C7.84875 7.82696 6.2038 9.78969 5.2122 12.0935C4.22061 14.3973 3.92582 16.9412 4.36429 19.4107C4.80276 21.8802 5.95526 24.1671 7.67933 25.9887C8.66872 24.4099 10.0432 23.1085 11.6736 22.2068C13.304 21.305 15.1368 20.8324 17 20.8334C18.8632 20.8324 20.696 21.305 22.3264 22.2068C23.9568 23.1085 25.3313 24.4099 26.3207 25.9887ZM17 40.5014L5.33267 28.8341C3.02512 26.5265 1.45367 23.5865 0.817028 20.3858C0.180388 17.1851 0.507155 13.8675 1.75601 10.8525C3.00486 7.83758 5.1197 5.26064 7.83311 3.44761C10.5465 1.63457 13.7366 0.66687 17 0.66687C20.2634 0.66687 23.4535 1.63457 26.1669 3.44761C28.8803 5.26064 30.9951 7.83758 32.244 10.8525C33.4928 13.8675 33.8196 17.1851 33.183 20.3858C32.5463 23.5865 30.9749 26.5265 28.6673 28.8341L17 40.5014ZM17 19.0001C15.5413 19.0001 14.1424 18.4206 13.1109 17.3891C12.0795 16.3577 11.5 14.9587 11.5 13.5001C11.5 12.0414 12.0795 10.6424 13.1109 9.61097C14.1424 8.57952 15.5413 8.00006 17 8.00006C18.4587 8.00006 19.8576 8.57952 20.8891 9.61097C21.9205 10.6424 22.5 12.0414 22.5 13.5001C22.5 14.9587 21.9205 16.3577 20.8891 17.3891C19.8576 18.4206 18.4587 19.0001 17 19.0001Z" fill="#FE683B"/>
</svg>
