<svg width="34" height="30" viewBox="0 0 34 30" fill="none" xmlns="http://www.w3.org/2000/svg">
<path d="M22 0C22.92 0 23.6667 0.746667 23.6667 1.66667V5H32C32.92 5 33.6667 5.74667 33.6667 6.66667V28.3333C33.6667 29.2533 32.92 30 32 30H2.00001C1.08001 30 0.333344 29.2533 0.333344 28.3333V6.66667C0.333344 5.74667 1.08001 5 2.00001 5H10.3333V1.66667C10.3333 0.746667 11.08 0 12 0H22ZM10.3333 8.33333H7.00001V26.6667H10.3333V8.33333ZM27 8.33333H23.6667V26.6667H27V8.33333ZM20.3333 3.33333H13.6667V5H20.3333V3.33333Z" fill="#FF683B"/>
</svg>
