<svg width="33" height="31" viewBox="0 0 33 31" fill="none" xmlns="http://www.w3.org/2000/svg">
<path d="M4.91667 20.75V23.9166C4.91642 24.7155 5.21815 25.485 5.76138 26.0708C6.3046 26.6566 7.04918 27.0155 7.84584 27.0754L8.08334 27.0833H12.8333V30.25H8.08334C6.40363 30.25 4.79273 29.5827 3.605 28.395C2.41726 27.2072 1.75001 25.5963 1.75001 23.9166V20.75H4.91667ZM25.5 12.8333L32.4667 30.25H29.0546L27.153 25.5H20.6772L18.7788 30.25H15.3683L22.3333 12.8333H25.5ZM23.9167 17.4012L21.9423 22.3333H25.8879L23.9167 17.4012ZM9.66667 0.166626V3.33329H16V14.4166H9.66667V19.1666H6.50001V14.4166H0.166672V3.33329H6.50001V0.166626H9.66667ZM23.9167 1.74996C25.5964 1.74996 27.2073 2.41722 28.395 3.60495C29.5827 4.79268 30.25 6.40359 30.25 8.08329V11.25H27.0833V8.08329C27.0833 7.24344 26.7497 6.43799 26.1558 5.84412C25.562 5.25026 24.7565 4.91663 23.9167 4.91663H19.1667V1.74996H23.9167ZM6.50001 6.49996H3.33334V11.25H6.50001V6.49996ZM12.8333 6.49996H9.66667V11.25H12.8333V6.49996Z" fill="#FF683B"/>
</svg>
