<svg width="34" height="43" viewBox="0 0 34 43" fill="none" xmlns="http://www.w3.org/2000/svg">
<path d="M7.39544 31.2471C4.50266 29.2071 2.3345 26.2991 1.2051 22.9444C0.0756923 19.5896 0.0437056 15.9624 1.11377 12.5883C2.18384 9.21416 4.30037 6.26835 7.15673 4.17765C10.0131 2.08695 13.4609 0.959961 17.0007 0.959961C20.5404 0.959961 23.9882 2.08695 26.8446 4.17765C29.7009 6.26835 31.8175 9.21416 32.8875 12.5883C33.9576 15.9624 33.9256 19.5896 32.7962 22.9444C31.6668 26.2991 29.4986 29.2071 26.6059 31.2471L30.9454 41.1638C31.0151 41.3225 31.0441 41.4961 31.0297 41.6689C31.0154 41.8417 30.9581 42.0081 30.8631 42.1532C30.7682 42.2982 30.6385 42.4172 30.4859 42.4995C30.3333 42.5817 30.1626 42.6246 29.9892 42.6242H4.01003C3.83693 42.6245 3.66651 42.5816 3.51415 42.4994C3.36178 42.4173 3.2323 42.2985 3.13738 42.1537C3.04247 42.009 2.98512 41.8429 2.97052 41.6704C2.95593 41.4979 2.98454 41.3245 3.05378 41.1659L7.39336 31.2471H7.39544ZM8.91419 19.645C9.36742 21.4461 10.409 23.0442 11.8737 24.186C13.3384 25.3278 15.1424 25.9478 16.9996 25.9478C18.8568 25.9478 20.6608 25.3278 22.1255 24.186C23.5902 23.0442 24.6318 21.4461 25.085 19.645L21.0434 18.6346C20.8191 19.5375 20.2991 20.3393 19.5663 20.9123C18.8334 21.4854 17.9299 21.7967 16.9996 21.7967C16.0693 21.7967 15.1658 21.4854 14.433 20.9123C13.7001 20.3393 13.1802 19.5375 12.9559 18.6346L8.91419 19.645Z" fill="#FF683B"/>
</svg>
